<svg width="180" height="100" viewBox="0 0 180 100" fill="none" xmlns="http://www.w3.org/2000/svg">
<path fill-rule="evenodd" clip-rule="evenodd" d="M170 2.43902H10C5.85787 2.43902 2.5 5.71499 2.5 9.7561V90.2439C2.5 94.285 5.85787 97.561 10 97.561H170C174.142 97.561 177.5 94.285 177.5 90.2439V9.7561C177.5 5.71499 174.142 2.43902 170 2.43902ZM10 0C4.47715 0 0 4.36796 0 9.7561V90.2439C0 95.632 4.47716 100 10 100H170C175.523 100 180 95.632 180 90.2439V9.7561C180 4.36795 175.523 0 170 0H10Z" fill="#B7BDCE"/>
<rect x="13.75" y="15.8535" width="76.25" height="12.1951" rx="4" fill="#B7BDCE"/>
<path fill-rule="evenodd" clip-rule="evenodd" d="M150 42.682H25C20.1675 42.682 16.25 46.5039 16.25 51.2186V74.3893C16.25 79.1039 20.1675 82.9259 25 82.9259H150C154.832 82.9259 158.75 79.1039 158.75 74.3893V51.2186C158.75 46.5039 154.832 42.682 150 42.682ZM25 39.0234C18.0964 39.0234 12.5 44.4834 12.5 51.2186V74.3893C12.5 81.1245 18.0964 86.5844 25 86.5844H150C156.904 86.5844 162.5 81.1245 162.5 74.3893V51.2186C162.5 44.4834 156.904 39.0234 150 39.0234H25Z" fill="#B7BDCE"/>
<path d="M43.0205 69.4237C44.8687 68.6799 46.8729 68.3795 48.8648 68.5477L85.9867 71.6818C88.0732 71.8579 90.1716 71.5198 92.0893 70.6985L141.929 49.3511C149.652 46.0435 158.447 50.993 159.378 59.1708L160.958 73.0426C161.78 80.2665 155.984 86.5844 148.534 86.5844H24.5059C20.5249 86.5844 18.7664 81.6936 21.875 79.2673L28.3657 75.4679C28.8989 75.1558 29.4553 74.8829 30.0302 74.6515L43.0205 69.4237Z" fill="#B7BDCE"/>
<path fill-rule="evenodd" clip-rule="evenodd" d="M29.2481 52.5834C27.7726 52.5834 26.5732 53.7535 26.5732 55.1954C26.5732 56.6349 27.7726 57.8051 29.2505 57.8051C30.726 57.8051 31.9279 56.6349 31.9279 55.1978C31.9254 53.7559 30.7236 52.5857 29.2481 52.5834ZM29.2505 61.3797C25.7524 61.3797 22.9089 58.6056 22.9089 55.1951C22.9089 51.7823 25.7524 49.0082 29.2505 49.0082C32.7462 49.0106 35.5897 51.7847 35.5921 55.1927V55.1951C35.5921 58.6056 32.7487 61.3797 29.2505 61.3797Z" fill="#B7BDCE"/>
</svg>
