<svg width="180" height="100" viewBox="0 0 180 100" fill="none" xmlns="http://www.w3.org/2000/svg">
<path fill-rule="evenodd" clip-rule="evenodd" d="M170 2.43902H10C5.85787 2.43902 2.5 5.71499 2.5 9.7561V90.2439C2.5 94.285 5.85787 97.561 10 97.561H170C174.142 97.561 177.5 94.285 177.5 90.2439V9.7561C177.5 5.71499 174.142 2.43902 170 2.43902ZM10 0C4.47715 0 0 4.36796 0 9.7561V90.2439C0 95.632 4.47716 100 10 100H170C175.523 100 180 95.632 180 90.2439V9.7561C180 4.36795 175.523 0 170 0H10Z" fill="#B7BDCE"/>
<rect x="13.75" y="15.8535" width="76.25" height="12.1951" rx="4" fill="#B7BDCE"/>
<path fill-rule="evenodd" clip-rule="evenodd" d="M151.25 45.1214H110C105.168 45.1214 101.25 48.9434 101.25 53.658V76.8287C101.25 81.5434 105.168 85.3653 110 85.3653H151.25C156.083 85.3653 160 81.5434 160 76.8287V53.658C160 48.9434 156.083 45.1214 151.25 45.1214ZM110 41.4629C103.097 41.4629 97.5005 46.9228 97.5005 53.658V76.8287C97.5005 83.5639 103.097 89.0239 110 89.0239H151.25C158.154 89.0239 163.75 83.5639 163.75 76.8287V53.658C163.75 46.9228 158.154 41.4629 151.25 41.4629H110Z" fill="#B7BDCE"/>
<path d="M107.555 74.9844C110.487 72.3132 114.554 71.1768 118.49 71.9293L124.851 73.1452C128.922 73.9235 133.124 72.6802 136.067 69.8267L141.622 64.4398C149.299 56.9943 162.388 61.9425 162.919 72.4912L163.107 76.231C163.457 83.1925 157.766 89.0239 150.622 89.0239H110.508C104.833 89.0239 101.364 82.9436 104.354 78.2376C104.691 77.7072 105.098 77.2227 105.566 76.7968L107.555 74.9844Z" fill="#B7BDCE"/>
<path fill-rule="evenodd" clip-rule="evenodd" d="M114.249 55.0228C112.773 55.0228 111.574 56.193 111.574 57.6349C111.574 59.0744 112.773 60.2445 114.251 60.2445C115.726 60.2445 116.928 59.0744 116.928 57.6372C116.926 56.1954 115.724 55.0252 114.249 55.0228ZM114.251 63.8191C110.753 63.8191 107.909 61.045 107.909 57.6346C107.909 54.2218 110.753 51.4476 114.251 51.4476C117.747 51.45 120.59 54.2241 120.593 57.6322V57.6346C120.593 61.045 117.749 63.8191 114.251 63.8191Z" fill="#B7BDCE"/>
<path fill-rule="evenodd" clip-rule="evenodd" d="M67.5 45.1234H26.25C21.4175 45.1234 17.5 48.9453 17.5 53.66V76.8307C17.5 81.5453 21.4175 85.3673 26.25 85.3673H67.5C72.3325 85.3673 76.25 81.5453 76.25 76.8307V53.66C76.25 48.9453 72.3325 45.1234 67.5 45.1234ZM26.25 41.4648C19.3464 41.4648 13.75 46.9248 13.75 53.66V76.8307C13.75 83.5659 19.3464 89.0258 26.25 89.0258H67.5C74.4036 89.0258 80 83.5659 80 76.8307V53.66C80 46.9248 74.4036 41.4648 67.5 41.4648H26.25Z" fill="#B7BDCE"/>
<path d="M23.8045 74.9863C26.736 72.3151 30.8035 71.1788 34.74 71.9313L41.1006 73.1471C45.172 73.9254 49.3739 72.6822 52.3163 69.8287L57.8711 64.4418C65.5488 56.9962 78.6378 61.9445 79.1684 72.4931L79.3565 76.233C79.7067 83.1945 74.0157 89.0258 66.8715 89.0258H26.7578C21.0825 89.0258 17.6133 82.9456 20.6034 78.2395C20.9404 77.7092 21.3479 77.2247 21.8154 76.7987L23.8045 74.9863Z" fill="#B7BDCE"/>
<path fill-rule="evenodd" clip-rule="evenodd" d="M30.4981 55.0248C29.0226 55.0248 27.8232 56.1949 27.8232 57.6368C27.8232 59.0763 29.0226 60.2465 30.5005 60.2465C31.976 60.2465 33.1779 59.0763 33.1779 57.6392C33.1754 56.1973 31.9736 55.0272 30.4981 55.0248ZM30.5005 63.8211C27.0024 63.8211 24.1589 61.047 24.1589 57.6365C24.1589 54.2237 27.0024 51.4496 30.5005 51.4496C33.9962 51.452 36.8397 54.2261 36.8421 57.6341V57.6365C36.8421 61.047 33.9987 63.8211 30.5005 63.8211Z" fill="#B7BDCE"/>
</svg>
