<svg width="180" height="100" viewBox="0 0 180 100" fill="none" xmlns="http://www.w3.org/2000/svg">
<path fill-rule="evenodd" clip-rule="evenodd" d="M170 2.43902H10C5.85787 2.43902 2.5 5.71499 2.5 9.7561V90.2439C2.5 94.285 5.85787 97.561 10 97.561H170C174.142 97.561 177.5 94.285 177.5 90.2439V9.7561C177.5 5.71499 174.142 2.43902 170 2.43902ZM10 0C4.47715 0 0 4.36796 0 9.7561V90.2439C0 95.632 4.47716 100 10 100H170C175.523 100 180 95.632 180 90.2439V9.7561C180 4.36795 175.523 0 170 0H10Z" fill="#B7BDCE"/>
<rect x="13.75" y="15.8535" width="76.25" height="12.1951" rx="4" fill="#B7BDCE"/>
<path fill-rule="evenodd" clip-rule="evenodd" d="M46.25 41.4632H26.25C21.4175 41.4632 17.5 45.2852 17.5 49.9998V73.1705C17.5 77.8852 21.4175 81.7071 26.25 81.7071H46.25C51.0825 81.7071 55 77.8852 55 73.1705V49.9998C55 45.2852 51.0825 41.4632 46.25 41.4632ZM26.25 37.8047C19.3464 37.8047 13.75 43.2646 13.75 49.9998V73.1705C13.75 79.9057 19.3464 85.3657 26.25 85.3657H46.25C53.1536 85.3657 58.75 79.9057 58.75 73.1705V49.9998C58.75 43.2646 53.1536 37.8047 46.25 37.8047H26.25Z" fill="#B7BDCE"/>
<path d="M19.8328 72.3278C22.1841 69.1735 26.308 67.7929 30.1491 68.8738C34.0886 69.9825 38.3219 68.4873 40.6352 65.1846C45.8798 57.6967 57.9191 61.0464 58.2288 70.1104L58.3707 74.2635C58.5781 80.3343 53.59 85.3657 47.3639 85.3657H25.7159C20.0337 85.3657 16.1885 79.7156 18.3934 74.6065C18.6304 74.0575 18.9313 73.537 19.2904 73.0553L19.8328 72.3278Z" fill="#B7BDCE"/>
<path fill-rule="evenodd" clip-rule="evenodd" d="M30.4981 51.3646C29.0226 51.3646 27.8232 52.5348 27.8232 53.9767C27.8232 55.4161 29.0226 56.5863 30.5005 56.5863C31.976 56.5863 33.1779 55.4161 33.1779 53.979C33.1754 52.5372 31.9736 51.367 30.4981 51.3646ZM30.5005 60.1609C27.0024 60.1609 24.1589 57.3868 24.1589 53.9764C24.1589 50.5636 27.0024 47.7894 30.5005 47.7894C33.9962 47.7918 36.8397 50.5659 36.8421 53.974V53.9764C36.8421 57.3868 33.9987 60.1609 30.5005 60.1609Z" fill="#B7BDCE"/>
<path fill-rule="evenodd" clip-rule="evenodd" d="M154.5 40.6585H134.5C129.668 40.6585 125.75 44.4805 125.75 49.1951V72.3659C125.75 77.0805 129.668 80.9024 134.5 80.9024H154.5C159.332 80.9024 163.25 77.0805 163.25 72.3659V49.1951C163.25 44.4805 159.332 40.6585 154.5 40.6585ZM134.5 37C127.596 37 122 42.4599 122 49.1951V72.3659C122 79.101 127.596 84.561 134.5 84.561H154.5C161.404 84.561 167 79.101 167 72.3659V49.1951C167 42.4599 161.404 37 154.5 37H134.5Z" fill="#B7BDCE"/>
<path d="M128.083 71.5231C130.434 68.3688 134.558 66.9882 138.399 68.0692C142.339 69.1778 146.572 67.6826 148.885 64.3799C154.13 56.8921 166.169 60.2417 166.479 69.3058L166.621 73.4588C166.828 79.5296 161.84 84.561 155.614 84.561H133.966C128.284 84.561 124.438 78.9109 126.643 73.8018C126.88 73.2528 127.181 72.7323 127.54 72.2506L128.083 71.5231Z" fill="#B7BDCE"/>
<path fill-rule="evenodd" clip-rule="evenodd" d="M138.748 50.5599C137.273 50.5599 136.073 51.7301 136.073 53.172C136.073 54.6115 137.273 55.7816 138.751 55.7816C140.226 55.7816 141.428 54.6115 141.428 53.1744C141.425 51.7325 140.224 50.5623 138.748 50.5599ZM138.751 59.3562C135.252 59.3562 132.409 56.5821 132.409 53.1717C132.409 49.7589 135.252 46.9848 138.751 46.9848C142.246 46.9871 145.09 49.7612 145.092 53.1693V53.1717C145.092 56.5821 142.249 59.3562 138.751 59.3562Z" fill="#B7BDCE"/>
<path fill-rule="evenodd" clip-rule="evenodd" d="M100.5 40.6585H80.5C75.6675 40.6585 71.75 44.4805 71.75 49.1951V72.3659C71.75 77.0805 75.6675 80.9024 80.5 80.9024H100.5C105.332 80.9024 109.25 77.0805 109.25 72.3659V49.1951C109.25 44.4805 105.332 40.6585 100.5 40.6585ZM80.5 37C73.5964 37 68 42.4599 68 49.1951V72.3659C68 79.101 73.5964 84.561 80.5 84.561H100.5C107.404 84.561 113 79.101 113 72.3659V49.1951C113 42.4599 107.404 37 100.5 37H80.5Z" fill="#B7BDCE"/>
<path d="M74.0828 71.5231C76.4341 68.3688 80.558 66.9882 84.3991 68.0692C88.3386 69.1778 92.5719 67.6826 94.8852 64.3799C100.13 56.8921 112.169 60.2417 112.479 69.3058L112.621 73.4588C112.828 79.5296 107.84 84.561 101.614 84.561H79.9659C74.2837 84.561 70.4385 78.9109 72.6434 73.8018C72.8804 73.2528 73.1813 72.7323 73.5404 72.2506L74.0828 71.5231Z" fill="#B7BDCE"/>
<path fill-rule="evenodd" clip-rule="evenodd" d="M84.7481 50.5599C83.2726 50.5599 82.0732 51.7301 82.0732 53.172C82.0732 54.6115 83.2726 55.7816 84.7505 55.7816C86.226 55.7816 87.4279 54.6115 87.4279 53.1744C87.4254 51.7325 86.2236 50.5623 84.7481 50.5599ZM84.7505 59.3562C81.2524 59.3562 78.4089 56.5821 78.4089 53.1717C78.4089 49.7589 81.2524 46.9848 84.7505 46.9848C88.2462 46.9871 91.0897 49.7612 91.0921 53.1693V53.1717C91.0921 56.5821 88.2487 59.3562 84.7505 59.3562Z" fill="#B7BDCE"/>
</svg>
