<svg width="181" height="100" viewBox="0 0 181 100" fill="none" xmlns="http://www.w3.org/2000/svg">
<path fill-rule="evenodd" clip-rule="evenodd" d="M170.535 2.43902H10.5352C6.39302 2.43902 3.03516 5.71499 3.03516 9.7561V90.2439C3.03516 94.285 6.39302 97.561 10.5352 97.561H170.535C174.677 97.561 178.035 94.285 178.035 90.2439V9.7561C178.035 5.71499 174.677 2.43902 170.535 2.43902ZM10.5352 0C5.01231 0 0.535156 4.36796 0.535156 9.7561V90.2439C0.535156 95.632 5.01231 100 10.5352 100H170.535C176.058 100 180.535 95.632 180.535 90.2439V9.7561C180.535 4.36795 176.058 0 170.535 0H10.5352Z" fill="#B7BDCE"/>
<rect x="14.2852" y="24.3906" width="76.25" height="12.1951" rx="4" fill="#B7BDCE"/>
<rect x="14.2852" y="43.9023" width="64.8125" height="3.65854" rx="1.82927" fill="#B7BDCE"/>
<rect x="14.2852" y="51.2188" width="64.8125" height="3.65854" rx="1.82927" fill="#B7BDCE"/>
<rect x="14.2852" y="58.5371" width="64.8125" height="3.65854" rx="1.82927" fill="#B7BDCE"/>
<rect x="14.2852" y="65.8555" width="49.5625" height="3.65854" rx="1.82927" fill="#B7BDCE"/>
<path fill-rule="evenodd" clip-rule="evenodd" d="M150.535 28.0492H119.285C114.453 28.0492 110.535 31.8711 110.535 36.5857V59.7565C110.535 64.4711 114.453 68.2931 119.285 68.2931H150.535C155.368 68.2931 159.285 64.4711 159.285 59.7565V36.5857C159.285 31.8711 155.368 28.0492 150.535 28.0492ZM119.285 24.3906C112.382 24.3906 106.785 29.8506 106.785 36.5857V59.7565C106.785 66.4917 112.382 71.9516 119.285 71.9516H150.535C157.439 71.9516 163.035 66.4917 163.035 59.7565V36.5857C163.035 29.8506 157.439 24.3906 150.535 24.3906H119.285Z" fill="#B7BDCE"/>
<path d="M114.36 58.9447C117.402 55.6803 122.014 54.2732 126.42 55.2652L128.145 55.6537C132.687 56.6761 137.44 55.1422 140.467 51.6848C147.845 43.2578 162.017 48.1237 162.49 59.1968C162.786 66.1251 157.111 71.9516 150.003 71.9516H119.246C113.585 71.9516 109.952 66.081 112.589 61.1934C112.885 60.6442 113.252 60.1338 113.68 59.6746L114.36 58.9447Z" fill="#B7BDCE"/>
<path fill-rule="evenodd" clip-rule="evenodd" d="M123.533 37.95C122.058 37.95 120.858 39.1202 120.858 40.5621C120.858 42.0016 122.058 43.1718 123.536 43.1718C125.011 43.1718 126.213 42.0016 126.213 40.5645C126.211 39.1226 125.009 37.9524 123.533 37.95ZM123.536 46.7469C120.038 46.7469 117.194 43.9727 117.194 40.5623C117.194 37.1495 120.038 34.3754 123.536 34.3754C127.031 34.3778 129.875 37.1519 129.877 40.5599V40.5623C129.877 43.9727 127.034 46.7469 123.536 46.7469Z" fill="#B7BDCE"/>
</svg>
