<svg width="181" height="100" viewBox="0 0 181 100" fill="none" xmlns="http://www.w3.org/2000/svg">
<path fill-rule="evenodd" clip-rule="evenodd" d="M170.768 2.43902H10.7676C6.62544 2.43902 3.26758 5.71499 3.26758 9.7561V90.2439C3.26758 94.285 6.62545 97.561 10.7676 97.561H170.768C174.91 97.561 178.268 94.285 178.268 90.2439V9.7561C178.268 5.71499 174.91 2.43902 170.768 2.43902ZM10.7676 0C5.24473 0 0.767578 4.36796 0.767578 9.7561V90.2439C0.767578 95.632 5.24474 100 10.7676 100H170.768C176.29 100 180.768 95.632 180.768 90.2439V9.7561C180.768 4.36795 176.29 0 170.768 0H10.7676Z" fill="#B7BDCE"/>
<rect x="90.7676" y="24.3906" width="76.25" height="12.1951" rx="4" fill="#B7BDCE"/>
<rect x="90.7676" y="43.9023" width="64.8125" height="3.65854" rx="1.82927" fill="#B7BDCE"/>
<rect x="90.7676" y="51.2188" width="64.8125" height="3.65854" rx="1.82927" fill="#B7BDCE"/>
<rect x="90.7676" y="58.5371" width="64.8125" height="3.65854" rx="1.82927" fill="#B7BDCE"/>
<rect x="90.7676" y="65.8555" width="49.5625" height="3.65854" rx="1.82927" fill="#B7BDCE"/>
<path fill-rule="evenodd" clip-rule="evenodd" d="M59.5176 28.0492H28.2676C23.4351 28.0492 19.5176 31.8711 19.5176 36.5857V59.7565C19.5176 64.4711 23.4351 68.2931 28.2676 68.2931H59.5176C64.3501 68.2931 68.2676 64.4711 68.2676 59.7565V36.5857C68.2676 31.8711 64.3501 28.0492 59.5176 28.0492ZM28.2676 24.3906C21.364 24.3906 15.7676 29.8506 15.7676 36.5857V59.7565C15.7676 66.4917 21.364 71.9516 28.2676 71.9516H59.5176C66.4211 71.9516 72.0176 66.4917 72.0176 59.7565V36.5857C72.0176 29.8506 66.4211 24.3906 59.5176 24.3906H28.2676Z" fill="#B7BDCE"/>
<path d="M23.3422 58.9447C26.3841 55.6803 30.9959 54.2732 35.4022 55.2652L37.1278 55.6537C41.6691 56.6761 46.4221 55.1422 49.4491 51.6848C56.8271 43.2578 70.9999 48.1237 71.4728 59.1968C71.7687 66.1251 66.0936 71.9516 58.9859 71.9516H28.2288C22.5675 71.9516 18.9346 66.081 21.5714 61.1934C21.8676 60.6442 22.2341 60.1338 22.6621 59.6746L23.3422 58.9447Z" fill="#B7BDCE"/>
<path fill-rule="evenodd" clip-rule="evenodd" d="M32.5156 37.95C31.0402 37.95 29.8407 39.1202 29.8407 40.5621C29.8407 42.0016 31.0402 43.1718 32.5181 43.1718C33.9935 43.1718 35.1954 42.0016 35.1954 40.5645C35.193 39.1226 33.9911 37.9524 32.5156 37.95ZM32.5181 46.7469C29.02 46.7469 26.1765 43.9727 26.1765 40.5623C26.1765 37.1495 29.02 34.3754 32.5181 34.3754C36.0138 34.3778 38.8573 37.1519 38.8597 40.5599V40.5623C38.8597 43.9727 36.0163 46.7469 32.5181 46.7469Z" fill="#B7BDCE"/>
</svg>
