<svg width="180" height="100" viewBox="0 0 180 100" fill="none" xmlns="http://www.w3.org/2000/svg">
<path fill-rule="evenodd" clip-rule="evenodd" d="M170 2.43902H10C5.85787 2.43902 2.5 5.71499 2.5 9.7561V90.2439C2.5 94.285 5.85787 97.561 10 97.561H170C174.142 97.561 177.5 94.285 177.5 90.2439V9.7561C177.5 5.71499 174.142 2.43902 170 2.43902ZM10 0C4.47715 0 0 4.36796 0 9.7561V90.2439C0 95.632 4.47716 100 10 100H170C175.523 100 180 95.632 180 90.2439V9.7561C180 4.36795 175.523 0 170 0H10Z" fill="#B7BDCE"/>
<rect x="13.75" y="15.8535" width="76.25" height="12.1951" rx="4" fill="#B7BDCE"/>
<path fill-rule="evenodd" clip-rule="evenodd" d="M110 41.4632H68.75C63.9175 41.4632 60 45.2852 60 49.9998V73.1705C60 77.8852 63.9175 81.7071 68.75 81.7071H110C114.832 81.7071 118.75 77.8852 118.75 73.1705V49.9998C118.75 45.2852 114.832 41.4632 110 41.4632ZM68.75 37.8047C61.8464 37.8047 56.25 43.2646 56.25 49.9998V73.1705C56.25 79.9057 61.8464 85.3657 68.75 85.3657H110C116.904 85.3657 122.5 79.9057 122.5 73.1705V49.9998C122.5 43.2646 116.904 37.8047 110 37.8047H68.75Z" fill="#B7BDCE"/>
<path d="M66.3045 71.3262C69.236 68.655 73.3035 67.5186 77.24 68.2711L83.6006 69.487C87.672 70.2653 91.8739 69.022 94.8163 66.1685L100.371 60.7816C108.049 53.3361 121.138 58.2843 121.668 68.833L121.856 72.5728C122.207 79.5343 116.516 85.3657 109.372 85.3657H69.2578C63.5825 85.3657 60.1133 79.2854 63.1034 74.5794C63.4404 74.049 63.8479 73.5645 64.3154 73.1386L66.3045 71.3262Z" fill="#B7BDCE"/>
<path fill-rule="evenodd" clip-rule="evenodd" d="M72.9981 51.3646C71.5226 51.3646 70.3232 52.5348 70.3232 53.9767C70.3232 55.4161 71.5226 56.5863 73.0005 56.5863C74.476 56.5863 75.6779 55.4161 75.6779 53.979C75.6754 52.5372 74.4736 51.367 72.9981 51.3646ZM73.0005 60.1609C69.5024 60.1609 66.6589 57.3868 66.6589 53.9764C66.6589 50.5636 69.5024 47.7894 73.0005 47.7894C76.4962 47.7918 79.3397 50.5659 79.3421 53.974V53.9764C79.3421 57.3868 76.4987 60.1609 73.0005 60.1609Z" fill="#B7BDCE"/>
<path fill-rule="evenodd" clip-rule="evenodd" d="M30.7619 52.9157C31.4128 53.5507 31.4128 54.5802 30.7619 55.2152L23.6071 62.1956L30.7619 69.1759C31.4128 69.8109 31.4128 70.8404 30.7619 71.4754C30.111 72.1104 29.0557 72.1104 28.4049 71.4754L20.0715 63.3453C19.4207 62.7103 19.4207 61.6808 20.0715 61.0458L28.4049 52.9157C29.0557 52.2807 30.111 52.2807 30.7619 52.9157Z" fill="#B7BDCE"/>
<path fill-rule="evenodd" clip-rule="evenodd" d="M145.488 71.4749C144.837 70.8399 144.837 69.8104 145.488 69.1754L152.643 62.1951L145.488 55.2148C144.837 54.5798 144.837 53.5502 145.488 52.9152C146.139 52.2802 147.194 52.2802 147.845 52.9152L156.179 61.0453C156.829 61.6803 156.829 62.7098 156.179 63.3448L147.845 71.4749C147.194 72.1099 146.139 72.1099 145.488 71.4749Z" fill="#B7BDCE"/>
</svg>
