<svg width="181" height="100" viewBox="0 0 181 100" fill="none" xmlns="http://www.w3.org/2000/svg">
<path fill-rule="evenodd" clip-rule="evenodd" d="M170.303 2.43902H10.3027C6.1606 2.43902 2.80273 5.71499 2.80273 9.7561V90.2439C2.80273 94.285 6.1606 97.561 10.3027 97.561H170.303C174.445 97.561 177.803 94.285 177.803 90.2439V9.7561C177.803 5.71499 174.445 2.43902 170.303 2.43902ZM10.3027 0C4.77989 0 0.302734 4.36796 0.302734 9.7561V90.2439C0.302734 95.632 4.77989 100 10.3027 100H170.303C175.826 100 180.303 95.632 180.303 90.2439V9.7561C180.303 4.36795 175.826 0 170.303 0H10.3027Z" fill="#B7BDCE"/>
<rect x="14.0527" y="50" width="148.75" height="2.43902" rx="1.21951" fill="#B7BDCE"/>
</svg>
