<svg width="180" height="100" viewBox="0 0 180 100" fill="none" xmlns="http://www.w3.org/2000/svg">
<path fill-rule="evenodd" clip-rule="evenodd" d="M170 2.43902H10C5.85787 2.43902 2.5 5.71499 2.5 9.7561V90.2439C2.5 94.285 5.85787 97.561 10 97.561H170C174.142 97.561 177.5 94.285 177.5 90.2439V9.7561C177.5 5.71499 174.142 2.43902 170 2.43902ZM10 0C4.47715 0 0 4.36796 0 9.7561V90.2439C0 95.632 4.47716 100 10 100H170C175.523 100 180 95.632 180 90.2439V9.7561C180 4.36795 175.523 0 170 0H10Z" fill="#B7BDCE"/>
<rect x="15" y="24.3906" width="151.25" height="12.1951" rx="4" fill="#B7BDCE"/>
<rect x="15" y="43.9023" width="128.562" height="3.65854" rx="1.82927" fill="#B7BDCE"/>
<rect x="15" y="51.2188" width="128.562" height="3.65854" rx="1.82927" fill="#B7BDCE"/>
<rect x="15" y="58.5371" width="128.562" height="3.65854" rx="1.82927" fill="#B7BDCE"/>
<rect x="15" y="65.8555" width="98.3125" height="3.65854" rx="1.82927" fill="#B7BDCE"/>
</svg>
