<svg width="40" height="40" viewBox="0 0 40 40" fill="none" xmlns="http://www.w3.org/2000/svg">
<path d="M38.1049 1.50814C37.9828 1.47662 37.8535 1.48812 37.7389 1.54071C37.6243 1.5933 37.5313 1.68377 37.4755 1.79689C37.4255 1.89939 36.1883 4.33189 30.769 7.19376C30.6941 7.22646 30.6276 7.27552 30.5742 7.33733C30.5208 7.39915 30.482 7.47214 30.4605 7.55095C30.1219 8.81916 29.6627 10.0521 29.0893 11.2328C28.7729 10.5474 28.5608 9.8185 28.4602 9.07033C28.4483 8.98738 28.4175 8.90829 28.3701 8.83915C28.3228 8.77001 28.2602 8.71268 28.1871 8.67158C28.1141 8.63047 28.0326 8.6067 27.949 8.6021C27.8653 8.59749 27.7817 8.61217 27.7046 8.64501C26.2721 9.25533 24.713 9.83658 23.0705 10.3722C20.8927 11.0682 18.7913 11.9841 16.799 13.1056C16.6837 13.1718 16.5965 13.2776 16.5536 13.4035C16.3066 14.1285 16.0397 14.8132 15.753 15.4578C15.7649 15.2428 15.7807 15.0143 15.8005 14.7722C15.8091 14.6689 15.7881 14.5653 15.7401 14.4734C15.692 14.3815 15.6188 14.3052 15.529 14.2534C15.4392 14.2015 15.3366 14.1763 15.233 14.1805C15.1294 14.1848 15.0292 14.2184 14.944 14.2775C9.38802 18.125 6.36052 23.5553 5.42021 31.3469C3.99667 32.8359 2.74621 34.4813 1.69271 36.2516C1.49593 36.5859 1.43428 36.9828 1.52036 37.3611C1.60644 37.7394 1.83375 38.0706 2.15583 38.2869C2.39382 38.4402 2.67086 38.5219 2.95396 38.5222H27.954C28.099 38.5222 28.2381 38.4646 28.3407 38.362C28.4432 38.2595 28.5008 38.1204 28.5008 37.9753C28.5008 37.8303 28.4432 37.6912 28.3407 37.5886C28.2381 37.4861 28.099 37.4285 27.954 37.4285H4.4574C5.40696 35.8991 6.51802 34.4762 7.77146 33.1841C13.1624 32.9197 25.663 31.8309 30.5758 27.3891C30.9324 27.0664 31.2715 26.725 31.5918 26.3663C31.656 26.2948 31.7002 26.2077 31.72 26.1137C31.7398 26.0198 31.7346 25.9222 31.7047 25.8309C31.6749 25.7396 31.6215 25.6578 31.55 25.5937C31.4785 25.5296 31.3914 25.4854 31.2974 25.4656C31.1802 25.4413 31.0643 25.4156 30.949 25.3897C31.3377 25.3347 31.7746 25.2825 32.2561 25.2394C32.3361 25.232 32.4135 25.2072 32.4828 25.1667C32.5521 25.1262 32.6117 25.071 32.6574 25.005C36.6508 19.21 37.8002 14.7081 38.5127 2.06751C38.5197 1.94154 38.4829 1.81703 38.4086 1.71509C38.3342 1.61314 38.227 1.54003 38.1049 1.50814ZM2.6374 36.8025C6.04365 30.9588 12.3468 26.5178 19.0196 21.8169C20.4158 20.8335 21.9996 19.7188 23.5174 18.6041C23.5846 18.5543 23.666 18.5273 23.7496 18.5272C23.7705 18.5272 23.7914 18.5289 23.8121 18.5322C23.8627 18.54 23.9112 18.5579 23.9547 18.5847C23.9983 18.6115 24.0361 18.6468 24.0658 18.6885C24.1266 18.772 24.1519 18.8761 24.1363 18.9782C24.1208 19.0803 24.0656 19.1721 23.9827 19.2338C22.458 20.3503 20.8702 21.4688 19.4683 22.4556C12.8549 27.115 6.60802 31.516 3.28896 37.2347C3.26259 37.2802 3.22722 37.3199 3.18503 37.3513C3.14283 37.3827 3.09468 37.4051 3.04352 37.4173C2.99235 37.4295 2.93924 37.4312 2.88742 37.4222C2.8356 37.4132 2.78615 37.3937 2.74208 37.365C2.6575 37.3013 2.59985 37.2082 2.58047 37.1041C2.5611 37 2.5814 36.8924 2.6374 36.8025ZM31.9005 24.1741C30.7428 24.2704 29.596 24.4691 28.4733 24.7678C28.3632 24.8012 28.2664 24.8685 28.1967 24.96C28.127 25.0516 28.0879 25.1628 28.085 25.2778C28.0822 25.3929 28.1156 25.5059 28.1807 25.6008C28.2457 25.6957 28.3391 25.7677 28.4474 25.8066C28.9736 25.9941 29.5346 26.1647 30.1233 26.3153C30.0296 26.405 29.9374 26.4919 29.8421 26.5769C25.4633 30.5359 14.0568 31.6972 8.92396 32.0234C12.084 28.9975 16.0205 26.2235 20.0996 23.35C21.5058 22.3603 23.0965 21.2388 24.628 20.1153C24.9432 19.8823 25.1538 19.5343 25.214 19.1469C25.2742 18.7595 25.1792 18.364 24.9496 18.0463C24.8348 17.8879 24.6898 17.7539 24.5229 17.6518C24.3561 17.5497 24.1707 17.4817 23.9774 17.4516C23.7842 17.4215 23.5869 17.43 23.3969 17.4764C23.2069 17.5229 23.028 17.6066 22.8705 17.7225C21.3599 18.8306 19.7818 19.9413 18.3896 20.9231C14.1446 23.9138 10.0477 26.8006 6.71208 30.0285C7.72927 23.7722 10.2771 19.2116 14.6396 15.8535C14.6082 16.4911 14.6165 17.13 14.6643 17.7666C14.6758 17.881 14.723 17.989 14.7994 18.075C14.8758 18.161 14.9773 18.2208 15.0896 18.2458C15.2019 18.2708 15.3192 18.2597 15.4248 18.2142C15.5305 18.1687 15.6191 18.091 15.678 17.9922C16.4259 16.7109 17.0436 15.3579 17.5218 13.9535C19.3973 12.9162 21.3698 12.0651 23.4111 11.4122C24.8455 10.9435 26.2186 10.4416 27.5027 9.91533C27.8996 11.7378 28.6671 12.6575 28.7036 12.7C28.7606 12.767 28.833 12.8192 28.9145 12.8523C28.996 12.8854 29.0842 12.8983 29.1718 12.89C29.2594 12.8817 29.3436 12.8524 29.4174 12.8046C29.4913 12.7568 29.5524 12.6918 29.5958 12.6153C30.394 11.1796 31.0173 9.65342 31.4524 8.06939C34.5293 6.42376 36.3136 4.89376 37.3127 3.81626C36.6127 14.6981 35.4477 18.961 31.9005 24.1741Z" fill="#363636"/>
<path d="M35.0835 12.5123C35.0127 12.4994 34.9402 12.5006 34.8699 12.5158C34.7997 12.531 34.7331 12.56 34.6741 12.6009C34.615 12.6419 34.5646 12.6942 34.5258 12.7547C34.487 12.8152 34.4605 12.8828 34.4478 12.9535C34.2988 13.7826 34.1353 14.5388 33.9522 15.266C33.9167 15.4066 33.9384 15.5556 34.0127 15.6801C34.0869 15.8047 34.2076 15.8947 34.3481 15.9304C34.3922 15.9415 34.4374 15.9471 34.4828 15.947C34.6044 15.9469 34.7225 15.9063 34.8184 15.8315C34.9144 15.7568 34.9826 15.6523 35.0125 15.5345C35.2028 14.7845 35.3706 14.0032 35.5247 13.1479C35.5505 13.0051 35.5185 12.8579 35.4357 12.7387C35.353 12.6195 35.2263 12.5381 35.0835 12.5123Z" fill="#363636"/>
</svg>
