<svg width="40" height="40" viewBox="0 0 40 40" fill="none" xmlns="http://www.w3.org/2000/svg">
<g clip-path="url(#clip0_179_7994)">
<path d="M24.6136 28.2573H22.4209C22.0973 28.2573 21.835 28.5197 21.835 28.8433C21.835 29.1669 22.0973 29.4292 22.4209 29.4292H24.6136C24.9372 29.4292 25.1996 29.1669 25.1996 28.8433C25.1996 28.5197 24.9372 28.2573 24.6136 28.2573Z" fill="#363636"/>
<path d="M37.5201 21.9842L34.3294 20.7535L32.7026 19.1267C32.5981 19.0222 32.4635 18.9657 32.326 18.9569V17.6624C33.0927 16.8449 33.6385 15.8097 33.8587 14.6434C33.9955 14.6496 34.1335 14.6386 34.2697 14.6107C35.0493 14.4511 35.6152 13.7278 35.6152 12.8909V12.4636C35.6152 11.9795 35.4188 11.5351 35.0991 11.2174C35.6166 8.40329 35.1904 6.11 33.8612 4.57508C32.5755 3.09046 30.504 2.38085 27.8711 2.52327C25.4386 2.65476 23.8683 3.77398 23.3708 4.18343C23.0985 4.21578 22.6346 4.3114 22.165 4.59312C21.5142 4.98359 20.7385 5.80383 20.7385 7.49392C20.7385 8.9683 20.9742 10.1992 21.1448 10.8976C20.5729 11.1762 20.1903 11.7799 20.1903 12.4702V12.8908C20.1903 13.7277 20.7562 14.4511 21.5358 14.6107C21.672 14.6386 21.8101 14.6495 21.9467 14.6433C22.167 15.8096 22.7128 16.8448 23.4795 17.6623V18.9568C23.342 18.9656 23.2073 19.0222 23.1029 19.1266L21.4761 20.7534L18.2854 21.9841C18.0094 22.0905 17.7457 22.2286 17.5018 22.3943C17.2342 22.5762 17.1646 22.9405 17.3464 23.2082C17.4598 23.3751 17.6441 23.4649 17.8316 23.4649C17.9449 23.4649 18.0595 23.432 18.1603 23.3636C18.3304 23.248 18.5144 23.1518 18.7071 23.0774L21.6683 21.9352L23.9324 25.3314C24.213 25.7524 24.6629 26.0225 25.1664 26.0723C25.2224 26.0779 25.2784 26.0806 25.334 26.0806C25.6255 26.0806 25.9083 26.004 26.1586 25.8623L25.6728 36.8833C25.6585 37.2066 25.909 37.4803 26.2324 37.4945C26.2411 37.4949 26.2499 37.495 26.2586 37.495C26.5704 37.495 26.8297 37.2493 26.8436 36.9349L27.2945 26.7051H28.5109L28.9619 36.9349C28.9757 37.2494 29.2351 37.495 29.5468 37.495C29.5555 37.495 29.5643 37.4949 29.573 37.4945C29.8963 37.4803 30.1469 37.2066 30.1326 36.8833L29.6468 25.8623C29.8971 26.004 30.1798 26.0806 30.4714 26.0806C30.527 26.0806 30.583 26.0779 30.639 26.0723C31.1426 26.0225 31.5923 25.7524 31.873 25.3314L34.1371 21.9352L37.0983 23.0774C37.5136 23.2376 37.8711 23.4931 38.1522 23.8119L36.1263 25.8378C35.3944 26.5698 34.9913 27.5429 34.9913 28.5779V36.9092C34.9913 37.2328 35.2537 37.4951 35.5773 37.4951C35.9009 37.4951 36.1632 37.2328 36.1632 36.9092V28.5779C36.1632 27.8559 36.4444 27.177 36.9549 26.6665L38.7329 24.8885C38.8043 25.1505 38.8377 25.4259 38.8264 25.7074L38.3726 36.8854C38.3595 37.2088 38.611 37.4815 38.9342 37.4947C38.9424 37.495 38.9504 37.4952 38.9585 37.4952C39.271 37.4952 39.5307 37.2482 39.5435 36.9331L39.9974 25.7548C40.0639 24.0966 39.0684 22.5814 37.5201 21.9842ZM23.0938 14.4018C22.9904 13.8392 22.4695 13.4303 21.9072 13.4719C21.8628 13.4751 21.817 13.472 21.7709 13.4626C21.5379 13.415 21.3622 13.1691 21.3622 12.8909V12.4701C21.3622 12.1983 21.5439 11.9535 21.7757 11.9128C21.9713 11.8784 22.1586 11.9502 22.2771 12.1048C22.3847 12.245 22.5282 12.3453 22.6921 12.3947C22.9321 12.4672 23.1967 12.4246 23.4001 12.281C23.7665 12.0224 24.0898 11.7064 24.361 11.3417C24.5541 11.082 24.5 10.7149 24.2404 10.5219C23.9807 10.3288 23.6137 10.3828 23.4206 10.6424C23.2853 10.8243 23.1325 10.9894 22.9643 11.1355C22.7785 10.9766 22.5615 10.8617 22.3289 10.7962C22.1784 10.2195 21.9104 8.98392 21.9104 7.49376C21.9104 6.59633 22.1871 5.96578 22.7326 5.61969C23.1583 5.34961 23.6089 5.33883 23.6086 5.33875C23.7583 5.33875 23.9041 5.27977 24.0128 5.17688C24.0271 5.16344 25.4675 3.82671 27.9343 3.69335C30.1922 3.57148 31.9354 4.14148 32.9751 5.34211C34.0231 6.55227 34.3721 8.41017 33.9935 10.7356C33.8366 10.73 33.6648 10.7419 33.4937 10.7704L32.9433 9.44838C32.8309 9.17869 32.5367 9.03306 32.2541 9.10673C32.1996 9.12095 26.7886 10.4927 24.5197 7.66798C24.3171 7.41571 23.9484 7.3754 23.696 7.57806C23.4437 7.78071 23.4034 8.14947 23.6061 8.40181C25.923 11.2864 30.5202 10.6588 32.0505 10.3528L32.4762 11.3751C32.6593 11.8146 33.1276 12.0546 33.5891 11.9457C33.7786 11.9011 33.9596 11.9001 34.0276 11.9135C34.2645 11.9607 34.4432 12.1971 34.4432 12.4635V12.8908C34.4432 13.1691 34.2675 13.4149 34.0345 13.4625C33.9885 13.472 33.9425 13.4751 33.8982 13.4718C33.336 13.4309 32.8151 13.839 32.7116 14.4018C32.2854 16.7224 30.263 18.4068 27.9027 18.4068C25.5425 18.4068 23.52 16.7224 23.0938 14.4018ZM25.6931 24.7593C25.5445 24.9079 25.3718 24.9152 25.2819 24.9062C25.1922 24.8974 25.0241 24.8563 24.9075 24.6815L22.6267 21.2602L23.5439 20.3429L27.0455 23.4069L25.6931 24.7593ZM27.3461 25.5333L27.3816 24.728L27.9026 24.2069L28.4236 24.728L28.4591 25.5333H27.3461ZM27.9027 22.5997L24.6514 19.7547V18.6333C25.5967 19.2345 26.7151 19.5786 27.9027 19.5786C29.0903 19.5786 30.2088 19.2345 31.1541 18.6333V19.7547L27.9027 22.5997ZM30.898 24.6815C30.7814 24.8564 30.6133 24.8974 30.5237 24.9062C30.4337 24.9152 30.261 24.9079 30.1124 24.7592L28.76 23.4068L32.2616 20.3429L33.1788 21.2601L30.898 24.6815Z" fill="#363636"/>
<path d="M18.5817 25.0542L15.7206 23.8053L14.1566 22.2413C14.0518 22.1365 13.9171 22.0803 13.78 22.0715V21.1497C15.1167 20.2713 16.0948 18.8744 16.4091 17.2098C16.563 17.2166 16.7184 17.2019 16.8715 17.1657C17.6213 16.9883 18.1654 16.2698 18.1654 15.4573V15.0301C18.1654 14.4365 17.8709 13.9025 17.4146 13.5892C17.5488 13.0575 17.6172 12.5135 17.6172 11.9659C17.6172 9.53841 16.305 7.40027 14.3271 6.17261C14.306 4.14659 12.5767 2.50439 10.4531 2.50439C8.32938 2.50439 6.60008 4.14659 6.57898 6.17261C4.60116 7.40027 3.28897 9.53848 3.28897 11.9659C3.28897 12.5119 3.35694 13.0543 3.49038 13.5845C3.03428 13.8962 2.74077 14.4327 2.74077 15.0365V15.4573C2.74077 16.2698 3.28491 16.9883 4.03468 17.1657C4.1878 17.202 4.34312 17.2166 4.4971 17.2098C4.8114 18.8744 5.78961 20.2713 7.12625 21.1497V22.0715C6.98914 22.0803 6.85445 22.1365 6.74969 22.2413L5.1857 23.8053L2.32467 25.0542C0.868962 25.6896 -0.0638543 27.1828 0.00341162 28.7697L0.349429 36.9333C0.362788 37.2481 0.622242 37.4945 0.934431 37.4945C0.94279 37.4945 0.951228 37.4943 0.959665 37.4939C1.28303 37.4802 1.53396 37.207 1.52029 36.8837L1.1742 28.72C1.15193 28.194 1.28865 27.6836 1.54568 27.2443L3.08358 29.0898C3.5696 29.673 3.83718 30.4122 3.83718 31.1713V36.9085C3.83718 37.2321 4.09952 37.4945 4.42312 37.4945C4.74671 37.4945 5.00906 37.2321 5.00906 36.9085V31.1713C5.00906 30.1386 4.64491 29.133 3.98382 28.3397L2.34889 26.3777C2.48787 26.2819 2.63561 26.1971 2.7935 26.1282L5.28695 25.0397L7.04899 27.8998C7.22297 28.1822 7.51063 28.3737 7.83829 28.4253C7.89719 28.4346 7.95626 28.4391 8.01508 28.4391C8.28298 28.4391 8.54391 28.3442 8.75079 28.1676L9.86736 27.2149V36.9084C9.86736 37.232 10.1297 37.4944 10.4533 37.4944C10.7769 37.4944 11.0392 37.232 11.0392 36.9084V27.215L12.1557 28.1678C12.3626 28.3443 12.6235 28.4393 12.8914 28.4393C12.9502 28.4393 13.0093 28.4347 13.0682 28.4254C13.3959 28.3739 13.6835 28.1824 13.8575 27.9L15.6196 25.0398L18.113 26.1282C18.2708 26.1971 18.4186 26.282 18.5576 26.3778L16.9227 28.3397C16.2616 29.133 15.8975 30.1387 15.8975 31.1714V36.9086C15.8975 37.2322 16.1598 37.4945 16.4834 37.4945C16.807 37.4945 17.0693 37.2322 17.0693 36.9086V31.1714C17.0693 30.4123 17.337 29.6731 17.8229 29.0899L19.3608 27.2444C19.6179 27.6837 19.7546 28.1941 19.7323 28.7201L19.3863 36.8837C19.3726 37.207 19.6236 37.4802 19.9469 37.494C19.9554 37.4944 19.9637 37.4945 19.9722 37.4945C20.2843 37.4945 20.5438 37.2483 20.5572 36.9334L20.9032 28.7698C20.9704 27.1829 20.0375 25.6896 18.5817 25.0542ZM10.4532 3.67627C11.6998 3.67627 12.7515 4.47151 13.0625 5.54902C12.2536 5.2437 11.3735 5.07581 10.4532 5.07581C9.53298 5.07581 8.65282 5.2437 7.84391 5.54902C8.15493 4.47151 9.20657 3.67627 10.4532 3.67627ZM5.64422 16.9683C5.54093 16.4055 5.01913 15.9968 4.45773 16.0384C4.40796 16.0419 4.35655 16.0377 4.30468 16.0253C4.08124 15.9724 3.91272 15.7282 3.91272 15.4573V15.0365C3.91272 14.7647 4.09437 14.5198 4.32616 14.4791C4.52179 14.4448 4.70905 14.5166 4.82749 14.6711C4.93507 14.8114 5.07859 14.9117 5.24257 14.9612C5.4825 15.0337 5.74726 14.9912 5.95054 14.8475C6.31141 14.5928 6.63047 14.2823 6.89891 13.9248C7.0932 13.6661 7.04094 13.2987 6.78219 13.1045C6.52336 12.9102 6.15609 12.9625 5.96179 13.2212C5.8289 13.3982 5.67929 13.559 5.51476 13.7019C5.26406 13.4876 4.95663 13.3533 4.63054 13.3126C4.51827 12.8713 4.46085 12.42 4.46085 11.966C4.46085 8.81301 7.14899 6.24777 10.4532 6.24777C13.7574 6.24777 16.4455 8.81293 16.4455 11.966C16.4455 12.4191 16.3884 12.8695 16.2765 13.3101C16.1223 13.3223 15.9656 13.3476 15.8205 13.3852L15.38 13.023C15.1587 12.841 14.8801 12.7499 14.5982 12.7667C13.7369 12.8176 9.3261 12.934 7.06313 10.2258C6.85563 9.97747 6.48617 9.94434 6.23781 10.1518C5.98945 10.3593 5.9564 10.7289 6.16391 10.9772C7.28 12.3129 8.91696 13.2161 11.0292 13.6617C12.6465 14.0029 14.0842 13.9698 14.6475 13.9376L15.3346 14.5027C15.5238 14.6583 15.789 14.6802 16.0008 14.5569C16.1002 14.5028 16.433 14.4511 16.5782 14.4801C16.8152 14.5272 16.9938 14.7636 16.9938 15.0301V15.4573C16.9938 15.7283 16.8253 15.9725 16.6018 16.0253C16.55 16.0376 16.4986 16.042 16.4488 16.0383C15.8877 15.9975 15.3656 16.4055 15.2622 16.9682C14.836 19.2889 12.8135 20.9733 10.4533 20.9733C8.09297 20.9733 6.07047 19.2889 5.64422 16.9683ZM8.0236 27.2477L6.26125 24.3871L7.16406 23.4842L9.59048 25.9107L8.0236 27.2477ZM10.4532 25.116L8.29821 22.961V21.7488C8.97095 22.0049 9.6979 22.1452 10.4532 22.1452C11.2085 22.1452 11.9355 22.0049 12.6082 21.7489V22.961L10.4532 25.116ZM12.8828 27.2477L11.316 25.9107L13.7424 23.4842L14.6452 24.3871L12.8828 27.2477Z" fill="#363636"/>
<path d="M8.26075 30.8413H6.61621C6.29262 30.8413 6.03027 31.1037 6.03027 31.4272C6.03027 31.7508 6.29262 32.0132 6.61621 32.0132H8.26075C8.58435 32.0132 8.84669 31.7508 8.84669 31.4272C8.84669 31.1037 8.58435 30.8413 8.26075 30.8413Z" fill="#363636"/>
</g>
<defs>
<clipPath id="clip0_179_7994">
<rect width="40" height="40" fill="white"/>
</clipPath>
</defs>
</svg>