<svg width="69" height="69" viewBox="0 0 69 69" fill="none" xmlns="http://www.w3.org/2000/svg">
<g filter="url(#filter0_d_880_35999)">
<circle cx="34.5" cy="32.5" r="22.5" fill="#326E5B"/>
</g>
<path fill-rule="evenodd" clip-rule="evenodd" d="M27.3905 25.3905C27.9112 24.8698 28.7554 24.8698 29.2761 25.3905L35 31.1144L40.7239 25.3905C41.2446 24.8698 42.0888 24.8698 42.6095 25.3905C43.1302 25.9112 43.1302 26.7554 42.6095 27.2761L36.8856 33L42.6095 38.7239C43.1302 39.2446 43.1302 40.0888 42.6095 40.6095C42.0888 41.1302 41.2446 41.1302 40.7239 40.6095L35 34.8856L29.2761 40.6095C28.7554 41.1302 27.9112 41.1302 27.3905 40.6095C26.8698 40.0888 26.8698 39.2446 27.3905 38.7239L33.1144 33L27.3905 27.2761C26.8698 26.7554 26.8698 25.9112 27.3905 25.3905Z" fill="white"/>
<defs>
<filter id="filter0_d_880_35999" x="0" y="0" width="69" height="69" filterUnits="userSpaceOnUse" color-interpolation-filters="sRGB">
<feFlood flood-opacity="0" result="BackgroundImageFix"/>
<feColorMatrix in="SourceAlpha" type="matrix" values="0 0 0 0 0 0 0 0 0 0 0 0 0 0 0 0 0 0 127 0" result="hardAlpha"/>
<feOffset dy="2"/>
<feGaussianBlur stdDeviation="6"/>
<feComposite in2="hardAlpha" operator="out"/>
<feColorMatrix type="matrix" values="0 0 0 0 0 0 0 0 0 0 0 0 0 0 0 0 0 0 0.12 0"/>
<feBlend mode="normal" in2="BackgroundImageFix" result="effect1_dropShadow_880_35999"/>
<feBlend mode="normal" in="SourceGraphic" in2="effect1_dropShadow_880_35999" result="shape"/>
</filter>
</defs>
</svg>
