<svg width="19" height="20" viewBox="0 0 19 20" fill="none" xmlns="http://www.w3.org/2000/svg">
<path fill-rule="evenodd" clip-rule="evenodd" d="M9.24635 19.9992C7.89135 19.9992 6.57035 19.9842 5.26335 19.9572C3.59135 19.9242 2.43435 18.8402 2.24535 17.1282C1.93035 14.2882 1.39135 7.59417 1.38635 7.52717C1.35235 7.11417 1.66035 6.75217 2.07335 6.71917C2.48035 6.70817 2.84835 6.99417 2.88135 7.40617C2.88635 7.47417 3.42435 14.1452 3.73635 16.9632C3.84335 17.9362 4.36835 18.4382 5.29435 18.4572C7.79435 18.5102 10.3454 18.5132 13.0954 18.4632C14.0794 18.4442 14.6114 17.9522 14.7214 16.9562C15.0314 14.1622 15.5714 7.47417 15.5774 7.40617C15.6104 6.99417 15.9754 6.70617 16.3844 6.71917C16.7974 6.75317 17.1054 7.11417 17.0724 7.52717C17.0664 7.59517 16.5244 14.3062 16.2124 17.1212C16.0184 18.8682 14.8644 19.9312 13.1224 19.9632C11.7894 19.9862 10.5034 19.9992 9.24635 19.9992Z" fill="#B7BDCE"/>
<path fill-rule="evenodd" clip-rule="evenodd" d="M17.708 4.98828H0.75C0.336 4.98828 0 4.65228 0 4.23828C0 3.82428 0.336 3.48828 0.75 3.48828H17.708C18.122 3.48828 18.458 3.82428 18.458 4.23828C18.458 4.65228 18.122 4.98828 17.708 4.98828Z" fill="#B7BDCE"/>
<path fill-rule="evenodd" clip-rule="evenodd" d="M14.4406 4.989C13.3026 4.989 12.3146 4.178 12.0906 3.062L11.8476 1.846C11.7966 1.661 11.5856 1.5 11.3456 1.5H7.11258C6.87258 1.5 6.66158 1.661 6.60058 1.892L6.36758 3.062C6.14458 4.178 5.15558 4.989 4.01758 4.989C3.60358 4.989 3.26758 4.653 3.26758 4.239C3.26758 3.825 3.60358 3.489 4.01758 3.489C4.44358 3.489 4.81358 3.185 4.89758 2.767L5.14058 1.551C5.38758 0.619 6.19458 0 7.11258 0H11.3456C12.2636 0 13.0706 0.619 13.3076 1.506L13.5616 2.767C13.6446 3.185 14.0146 3.489 14.4406 3.489C14.8546 3.489 15.1906 3.825 15.1906 4.239C15.1906 4.653 14.8546 4.989 14.4406 4.989Z" fill="#B7BDCE"/>
</svg>
