<svg width="48" height="48" viewBox="0 0 48 48" fill="none" xmlns="http://www.w3.org/2000/svg">
<circle cx="24" cy="24" r="23.5" fill="white" stroke="#B7BDCE"/>
<path fill-rule="evenodd" clip-rule="evenodd" d="M31.825 15.9758C31.3694 15.5202 30.6307 15.5202 30.1751 15.9758L16.8868 29.2641L16.2701 31.7309L18.7369 31.1142L32.0252 17.8259C32.4808 17.3703 32.4808 16.6316 32.0252 16.176L31.825 15.9758ZM28.5251 14.3259C29.892 12.9591 32.1081 12.9591 33.4749 14.3259L33.6751 14.5261C35.0419 15.8929 35.0419 18.109 33.6751 19.4758L20.1583 32.9926C20.0088 33.1421 19.8215 33.2482 19.6163 33.2994L14.9496 34.4661C14.5521 34.5655 14.1315 34.449 13.8417 34.1592C13.552 33.8695 13.4355 33.4489 13.5349 33.0513L14.7015 28.3847C14.7528 28.1795 14.8589 27.9922 15.0084 27.8427L28.5251 14.3259Z" fill="#B7BDCE"/>
<path fill-rule="evenodd" clip-rule="evenodd" d="M26.6747 16.1757C27.1303 15.7201 27.869 15.7201 28.3246 16.1757L31.8246 19.6757C32.2802 20.1313 32.2802 20.87 31.8246 21.3256C31.369 21.7812 30.6303 21.7812 30.1747 21.3256L26.6747 17.8256C26.2191 17.37 26.2191 16.6313 26.6747 16.1757Z" fill="#B7BDCE"/>
<path fill-rule="evenodd" clip-rule="evenodd" d="M24 33.3327C24 32.6883 24.5223 32.166 25.1667 32.166H34.5C35.1443 32.166 35.6667 32.6883 35.6667 33.3327C35.6667 33.977 35.1443 34.4993 34.5 34.4993H25.1667C24.5223 34.4993 24 33.977 24 33.3327Z" fill="#B7BDCE"/>
</svg>
