<svg width="69" height="69" viewBox="0 0 69 69" fill="none" xmlns="http://www.w3.org/2000/svg">
<g filter="url(#filter0_d_880_35299)">
<circle cx="34.5" cy="32.5" r="22.5" fill="white"/>
</g>
<path fill-rule="evenodd" clip-rule="evenodd" d="M42.825 23.9758C42.3694 23.5202 41.6307 23.5202 41.1751 23.9758L27.8868 37.2641L27.2701 39.7309L29.7369 39.1142L43.0252 25.8259C43.4808 25.3703 43.4808 24.6316 43.0252 24.176L42.825 23.9758ZM39.5251 22.3259C40.892 20.9591 43.1081 20.9591 44.4749 22.3259L44.6751 22.5261C46.0419 23.8929 46.0419 26.109 44.6751 27.4758L31.1583 40.9926C31.0088 41.1421 30.8215 41.2482 30.6163 41.2994L25.9496 42.4661C25.5521 42.5655 25.1315 42.449 24.8417 42.1592C24.552 41.8695 24.4355 41.4489 24.5349 41.0513L25.7015 36.3847C25.7528 36.1795 25.8589 35.9922 26.0084 35.8427L39.5251 22.3259Z" fill="#B7BDCE"/>
<path fill-rule="evenodd" clip-rule="evenodd" d="M37.6747 24.1757C38.1303 23.7201 38.869 23.7201 39.3246 24.1757L42.8246 27.6757C43.2802 28.1313 43.2802 28.87 42.8246 29.3256C42.369 29.7812 41.6303 29.7812 41.1747 29.3256L37.6747 25.8256C37.2191 25.37 37.2191 24.6313 37.6747 24.1757Z" fill="#B7BDCE"/>
<path fill-rule="evenodd" clip-rule="evenodd" d="M35 41.3327C35 40.6883 35.5223 40.166 36.1667 40.166H45.5C46.1443 40.166 46.6667 40.6883 46.6667 41.3327C46.6667 41.977 46.1443 42.4993 45.5 42.4993H36.1667C35.5223 42.4993 35 41.977 35 41.3327Z" fill="#B7BDCE"/>
<defs>
<filter id="filter0_d_880_35299" x="0" y="0" width="69" height="69" filterUnits="userSpaceOnUse" color-interpolation-filters="sRGB">
<feFlood flood-opacity="0" result="BackgroundImageFix"/>
<feColorMatrix in="SourceAlpha" type="matrix" values="0 0 0 0 0 0 0 0 0 0 0 0 0 0 0 0 0 0 127 0" result="hardAlpha"/>
<feOffset dy="2"/>
<feGaussianBlur stdDeviation="6"/>
<feComposite in2="hardAlpha" operator="out"/>
<feColorMatrix type="matrix" values="0 0 0 0 0 0 0 0 0 0 0 0 0 0 0 0 0 0 0.12 0"/>
<feBlend mode="normal" in2="BackgroundImageFix" result="effect1_dropShadow_880_35299"/>
<feBlend mode="normal" in="SourceGraphic" in2="effect1_dropShadow_880_35299" result="shape"/>
</filter>
</defs>
</svg>
