<svg width="24" height="24" viewBox="0 0 24 24" fill="none" xmlns="http://www.w3.org/2000/svg">
<circle cx="12" cy="12" r="10.875" fill="white" stroke="#B7BDCE"/>
<path fill-rule="evenodd" clip-rule="evenodd" d="M15.7087 8.19755C15.4928 7.98161 15.1427 7.9816 14.9267 8.19755L8.62865 14.4956L8.33636 15.6648L9.50551 15.3725L15.8036 9.07441C16.0195 8.85847 16.0195 8.50836 15.8036 8.29242L15.7087 8.19755ZM14.1447 7.41556C14.7926 6.76773 15.8429 6.76773 16.4907 7.41555L16.5856 7.51043C17.2334 8.15825 17.2334 9.20858 16.5856 9.8564L10.1792 16.2628C10.1083 16.3336 10.0195 16.3839 9.92232 16.4082L7.71051 16.9612C7.52208 17.0083 7.32275 16.9531 7.1854 16.8157C7.04806 16.6784 6.99285 16.4791 7.03996 16.2906L7.59291 14.0788C7.61722 13.9816 7.66749 13.8928 7.73836 13.8219L14.1447 7.41556Z" fill="#B7BDCE"/>
<path fill-rule="evenodd" clip-rule="evenodd" d="M13.2674 8.29282C13.4834 8.07687 13.8335 8.07687 14.0494 8.29282L15.7083 9.95167C15.9242 10.1676 15.9242 10.5177 15.7083 10.7337C15.4923 10.9496 15.1422 10.9496 14.9263 10.7337L13.2674 9.07481C13.0515 8.85887 13.0515 8.50876 13.2674 8.29282Z" fill="#B7BDCE"/>
<path fill-rule="evenodd" clip-rule="evenodd" d="M12 16.424C12 16.1187 12.2476 15.8711 12.553 15.8711H16.9766C17.2819 15.8711 17.5295 16.1187 17.5295 16.424C17.5295 16.7294 17.2819 16.977 16.9766 16.977H12.553C12.2476 16.977 12 16.7294 12 16.424Z" fill="#B7BDCE"/>
</svg>
