<svg width="40" height="40" viewBox="0 0 40 40" fill="none" xmlns="http://www.w3.org/2000/svg">
<path d="M18.666 20.8507C18.666 21.2189 18.9645 21.5174 19.3327 21.5174H20.666C21.0342 21.5174 21.3327 21.2189 21.3327 20.8507C21.3327 20.4826 21.0342 20.1841 20.666 20.1841H19.3327C18.9645 20.1841 18.666 20.4826 18.666 20.8507Z" fill="#363636"/>
<path d="M20.666 22.8501H19.3327C18.9645 22.8501 18.666 23.1486 18.666 23.5168C18.666 23.885 18.9645 24.1834 19.3327 24.1834H20.666C21.0342 24.1834 21.3327 23.885 21.3327 23.5168C21.3327 23.1486 21.0342 22.8501 20.666 22.8501Z" fill="#363636"/>
<path d="M3.91976 9.35957C4.53592 9.76451 5.25511 9.98464 5.99236 9.99397C6.85291 10.0333 7.67345 9.62832 8.1657 8.92137C8.56945 8.25541 8.63375 7.43752 8.33903 6.71664C8.03888 5.95434 7.50157 5.30874 6.80643 4.87517C5.41356 3.97871 2.28643 4.25437 1.9347 4.28891C1.7319 4.30877 1.54932 4.42029 1.43905 4.59164C1.32879 4.763 1.30294 4.97537 1.3689 5.16817C1.4835 5.50244 2.52676 8.46271 3.91976 9.35957ZM6.0851 5.99624C6.53629 6.2753 6.88777 6.68978 7.08936 7.18051C7.23232 7.50893 7.21599 7.88491 7.0451 8.19971C6.6541 8.80811 5.55323 8.82571 4.64143 8.23844H4.64176C4.0519 7.85891 3.3895 6.61277 2.94776 5.56271C4.08896 5.52944 5.49556 5.61671 6.08503 5.99624H6.0851Z" fill="#363636"/>
<path d="M11.643 7.52991C11.8097 7.56304 11.9793 7.57983 12.1492 7.58004C12.3107 7.57826 12.4715 7.56012 12.6292 7.52591C12.7414 8.49178 12.8924 9.43978 13.04 10.1751C11.7953 9.87524 10.5045 9.8181 9.2381 10.0068C8.99835 10.036 8.79311 10.1926 8.70162 10.4161C8.61013 10.6396 8.64669 10.8951 8.79719 11.084C8.94769 11.2729 9.18859 11.3657 9.4269 11.3264C10.8663 11.1052 12.3385 11.2585 13.7014 11.7718C13.7406 11.791 13.7817 11.8063 13.824 11.8174C14.6289 12.1323 15.3728 12.5851 16.0222 13.1556C16.1988 14.9889 17.8964 16.7585 18.9004 17.6528C17.8284 18.464 15.9992 20.1446 15.9992 22.1839C15.9992 24.2086 17.8027 25.8798 18.8776 26.6972C17.9317 27.4941 16.4182 28.9984 16.0764 30.6666H11.9992C11.631 30.6666 11.3325 30.9651 11.3325 31.3333C11.3325 36.1198 15.2127 40 19.9992 40C24.7856 40 28.6658 36.1198 28.6658 31.3333C28.6658 30.9651 28.3674 30.6666 27.9992 30.6666H23.922C23.5801 28.9984 22.0666 27.4941 21.1207 26.6975C22.1956 25.88 23.9992 24.2086 23.9992 22.1839C23.9992 20.1446 22.17 18.4639 21.098 17.6528C22.1019 16.7586 23.7994 14.989 23.9761 13.1558C24.6255 12.5853 25.3694 12.1324 26.1744 11.8174C26.2171 11.8061 26.2587 11.7906 26.2984 11.7711C27.6609 11.2581 29.1327 11.1049 30.5717 11.3264C30.81 11.3657 31.0509 11.2729 31.2014 11.084C31.3519 10.8951 31.3885 10.6396 31.297 10.4161C31.2055 10.1926 31.0003 10.036 30.7605 10.0068C29.4942 9.81803 28.2033 9.87507 26.9586 10.1748C27.1061 9.44018 27.2571 8.49311 27.3692 7.52818C27.5254 7.5613 27.6845 7.57881 27.8442 7.58044C28.0159 7.58026 28.1871 7.56335 28.3556 7.52998C29.2961 7.31334 30.1136 6.73523 30.6313 5.92064C31.5622 4.54691 31.3452 1.41398 31.3175 1.06064C31.3013 0.857455 31.1931 0.67283 31.0237 0.559397C30.8544 0.445965 30.6424 0.416171 30.4484 0.47851C29.0756 0.903605 27.7897 1.57008 26.651 2.44664C25.6832 1.48106 24.5653 0.678842 23.3406 0.0712432C23.1587 -0.0203564 22.9448 -0.0237178 22.76 0.0621178C22.5753 0.147953 22.4399 0.313563 22.3925 0.51171C22.3102 0.855443 21.609 3.91504 22.3069 5.41764C22.7938 6.61195 23.9159 7.42674 25.2023 7.51998C25.4932 7.51828 25.7808 7.45882 26.0485 7.34504C25.9274 8.46092 25.7385 9.56837 25.4826 10.6612C24.5315 11.0567 23.6601 11.6218 22.911 12.3288C22.3606 12.6872 20.8982 13.5174 19.9992 13.5174C19.1002 13.5174 17.6375 12.6871 17.0872 12.3287C16.3381 11.6219 15.4668 11.057 14.5158 10.6616C14.2599 9.56867 14.0709 8.46117 13.9499 7.34524C14.2176 7.45896 14.5052 7.51836 14.796 7.51998C16.0823 7.42678 17.2043 6.61213 17.6912 5.41798C18.3894 3.91504 17.6883 0.855443 17.606 0.51171C17.5586 0.313525 17.4232 0.147883 17.2384 0.0620428C17.0536 -0.0237973 16.8397 -0.0204082 16.6577 0.0712432C15.4332 0.678758 14.3154 1.48081 13.3477 2.44618C12.2088 1.56978 10.9228 0.903462 9.54997 0.47851C9.3559 0.416265 9.14403 0.446131 8.97474 0.559597C8.80544 0.673063 8.69729 0.857684 8.6811 1.06084C8.65344 1.41371 8.43637 4.54684 9.3647 5.91698C9.88264 6.73317 10.7011 7.3126 11.643 7.52991ZM30.0242 2.04991C30.035 3.18824 29.9198 4.59318 29.5249 5.17591C29.2015 5.69508 28.6903 6.06956 28.0978 6.22144C27.8285 6.28541 27.5449 6.24036 27.3088 6.09611L27.276 6.07164C27.5745 5.30245 27.5934 4.45281 27.3293 3.67111L27.339 3.65778C27.7537 3.08664 28.9888 2.46351 30.0242 2.05011V2.04991ZM25.5682 6.10838C24.9119 6.41504 23.9731 5.83951 23.5161 4.85611C23.2208 4.21971 23.3273 2.81251 23.5161 1.68878C24.4956 2.26878 25.6388 3.09504 25.9354 3.73304C26.2708 4.36351 26.2797 5.11746 25.9594 5.75571C25.9527 5.76431 25.945 5.77184 25.9387 5.78071C25.8472 5.92149 25.7191 6.03474 25.5682 6.10838ZM19.9992 38.6666C16.2091 38.6621 13.0451 35.7739 12.6958 32H27.3024C26.9531 35.7739 23.7892 38.662 19.9992 38.6666ZM22.55 30.6666H17.449C17.8408 29.4437 19.1623 28.1736 19.9998 27.5026C20.8376 28.1726 22.1592 29.4413 22.55 30.6666ZM22.6658 22.1839C22.6658 23.6972 20.9718 25.1924 19.9985 25.8706C19.0252 25.1948 17.3325 23.7032 17.3325 22.1839C17.3325 20.6706 19.0265 19.1751 19.9998 18.4972C20.9731 19.1728 22.6658 20.664 22.6658 22.1839ZM19.9992 14.8506C20.786 14.7979 21.5533 14.5825 22.2525 14.218C21.6518 15.2111 20.8903 16.0975 19.9992 16.8411C19.1083 16.0978 18.3469 15.2117 17.7462 14.219C18.4455 14.5831 19.2126 14.7981 19.9992 14.8506ZM16.4832 1.68878C16.6717 2.81151 16.7784 4.21838 16.4819 4.85644C16.0258 5.83951 15.0864 6.41244 14.4305 6.10871C14.2796 6.0349 14.1515 5.92151 14.06 5.78064C14.0536 5.77178 14.0462 5.76431 14.0394 5.75578C13.7191 5.11762 13.728 4.36373 14.0633 3.73331C14.3592 3.09664 15.5031 2.27018 16.4832 1.68878ZM12.6432 3.63444C12.651 3.64698 12.6599 3.65877 12.6699 3.66964C12.4051 4.45187 12.4237 5.30228 12.7224 6.07218L12.6934 6.09404C12.4567 6.24053 12.1713 6.28646 11.9005 6.22164C11.3066 6.06906 10.7945 5.69326 10.4708 5.17251C10.0779 4.59251 9.96297 3.18778 9.97404 2.04944C11.0083 2.46124 12.2397 3.07998 12.643 3.63444H12.6432Z" fill="#363636"/>
<path d="M8.58207 20.3798C8.70004 20.5461 8.88761 20.6492 9.09121 20.6598C9.10294 20.6604 9.11434 20.6607 9.12567 20.6607C9.31742 20.6608 9.49989 20.5782 9.62634 20.4341C9.85967 20.1685 11.9079 17.7925 11.9981 16.1336C12.0895 14.3025 10.9727 12.7479 9.50787 12.6681C9.12161 12.6511 8.73766 12.736 8.39454 12.9142C8.3806 12.896 8.37221 12.8732 8.35767 12.8556C7.95509 12.3718 7.37568 12.0692 6.74861 12.0151C5.78035 11.9428 4.82264 12.2552 4.08327 12.8846C2.8018 13.9336 2.09187 16.9902 2.015 17.3352C1.97098 17.5326 2.019 17.7394 2.14554 17.8973C2.27207 18.0551 2.46344 18.1469 2.66574 18.1469H2.67547C2.9882 18.1423 5.47874 18.0817 6.9432 17.3429C7.36519 18.4175 7.91547 19.4372 8.58207 20.3798ZM10.6667 16.0641C10.6286 16.7662 9.87634 17.9609 9.18494 18.8665C8.62807 18.039 8.22922 17.1156 8.00854 16.1429L8.00747 16.1395L8.00787 16.1353C7.99838 16.0696 7.99499 16.0031 7.99774 15.9368L7.99807 15.9319C8.01545 15.3574 8.23466 14.8073 8.61721 14.3782L8.62047 14.3739L8.62274 14.3723C8.82479 14.1331 9.12291 13.9962 9.43607 13.999C10.1573 14.0387 10.7204 14.9853 10.6667 16.0641ZM6.66347 15.9459C6.64687 15.9602 6.63014 15.9745 6.61334 15.9882C6.06667 16.4303 4.6758 16.6735 3.5404 16.7679C3.86267 15.6751 4.3822 14.3629 4.92454 13.9189C5.34829 13.5604 5.87965 13.3537 6.43427 13.3317C6.49217 13.3316 6.55003 13.3346 6.6076 13.3407C6.88451 13.3595 7.14249 13.4879 7.32441 13.6975C7.34581 13.7234 7.36539 13.7507 7.38301 13.7793C6.95219 14.3883 6.70389 15.1075 6.66721 15.8526C6.66507 15.8834 6.66381 15.9143 6.66347 15.9459Z" fill="#363636"/>
<path d="M35.9113 12.8815C35.1719 12.255 34.216 11.9438 33.2495 12.0149C32.6243 12.0682 32.0464 12.369 31.644 12.8505C31.6281 12.8698 31.619 12.8941 31.604 12.9141C31.2606 12.7358 30.8764 12.6508 30.4899 12.6679C29.0258 12.7479 27.9089 14.3023 28.0004 16.1363C28.0905 17.7922 30.1387 20.1682 30.3721 20.4338C30.4985 20.5779 30.681 20.6605 30.8728 20.6605C30.8841 20.6605 30.8955 20.6601 30.9072 20.6595C31.1108 20.6489 31.2984 20.5458 31.4164 20.3795C32.0828 19.4371 32.633 18.4177 33.0549 17.3434C34.5159 18.0811 37.01 18.1422 37.323 18.1468H37.3325C37.5348 18.1468 37.7261 18.055 37.8526 17.8972C37.9791 17.7394 38.0272 17.5327 37.9832 17.3353C37.9064 16.9903 37.1964 13.9333 35.9113 12.8815ZM30.813 18.8662C30.1216 17.9616 29.37 16.7682 29.3315 16.0667C29.2778 14.985 29.841 14.0384 30.5614 13.999C30.874 13.9996 31.171 14.1358 31.3755 14.3723L31.3778 14.3739L31.381 14.3782C31.7636 14.8072 31.9828 15.3573 32.0002 15.9319L32.0005 15.9368C32.0032 16.0031 31.9998 16.0696 31.9904 16.1353L31.9908 16.1395L31.9897 16.1429C31.7685 17.1154 31.3696 18.0386 30.813 18.8662ZM33.3894 15.9919C33.3709 15.9769 33.3527 15.9613 33.3348 15.9457C33.3344 15.9144 33.3332 15.8831 33.3312 15.8523C33.2945 15.1073 33.0464 14.3881 32.6157 13.779C32.6345 13.7485 32.6553 13.7193 32.6779 13.6915C32.8597 13.4847 33.116 13.3584 33.3908 13.3402C34.0037 13.3088 34.6052 13.5149 35.0701 13.9157C35.6138 14.3607 36.1346 15.6742 36.4575 16.7679C35.323 16.6745 33.934 16.4319 33.3894 15.9919Z" fill="#363636"/>
<path d="M38.0647 4.28853C37.7128 4.25306 34.5855 3.97766 33.1932 4.87479C32.4979 5.30827 31.9605 5.95389 31.6604 6.71626C31.3657 7.43725 31.43 8.25524 31.8337 8.92133C32.3261 9.62807 33.1466 10.0329 34.007 9.99359C34.7443 9.98431 35.4635 9.76417 36.0796 9.35919H36.0799C37.4728 8.46233 38.5161 5.50206 38.6307 5.16779C38.6966 4.97495 38.6708 4.76253 38.5604 4.59117C38.4501 4.4198 38.2675 4.30831 38.0646 4.28853H38.0647ZM35.358 8.23806C34.4459 8.82473 33.3456 8.80706 32.9544 8.19966C32.7835 7.88474 32.7671 7.50867 32.9101 7.18013C33.1117 6.68932 33.4633 6.27481 33.9147 5.99586C34.768 5.64447 35.6906 5.49393 36.6113 5.55586C36.761 5.55586 36.9088 5.55813 37.052 5.56253C36.6116 6.61179 35.9494 7.85719 35.358 8.23806H35.358Z" fill="#363636"/>
<path d="M17.14 32.8602C17.1067 32.8335 17.0733 32.8069 17.04 32.7802C17.0028 32.755 16.9625 32.7348 16.92 32.7202C16.8822 32.7009 16.8418 32.6875 16.8 32.6802C16.7123 32.66 16.6211 32.66 16.5333 32.6802C16.4916 32.6875 16.4511 32.7009 16.4133 32.7202C16.3709 32.7348 16.3305 32.755 16.2933 32.7802C16.26 32.8069 16.2267 32.8335 16.1933 32.8602C16.0715 32.988 16.0025 33.157 16 33.3335C16.0011 33.376 16.0055 33.4184 16.0133 33.4602C16.0196 33.5043 16.0331 33.5471 16.0533 33.5869C16.0679 33.6293 16.0881 33.6697 16.1133 33.7069C16.14 33.7402 16.1667 33.7735 16.1933 33.8069C16.4562 34.0646 16.8771 34.0646 17.14 33.8069C17.2616 33.679 17.3306 33.51 17.3333 33.3335C17.3323 33.2464 17.3142 33.1603 17.28 33.0802C17.2461 32.9995 17.1987 32.9251 17.14 32.8602Z" fill="#363636"/>
<path d="M17.14 34.8597C17.1083 34.8311 17.0749 34.8044 17.04 34.7797C17.0028 34.7545 16.9625 34.7343 16.92 34.7197C16.8822 34.7004 16.8418 34.687 16.8 34.6797C16.7123 34.6595 16.6211 34.6595 16.5333 34.6797C16.4916 34.687 16.4511 34.7004 16.4133 34.7197C16.3709 34.7344 16.3305 34.7545 16.2933 34.7797C16.2583 34.8042 16.2249 34.8309 16.1933 34.8597C16.1345 34.9245 16.0871 34.9989 16.0533 35.0797C16.0192 35.1599 16.0011 35.2459 16 35.333C16.0025 35.5095 16.0716 35.6786 16.1933 35.8064C16.2267 35.833 16.26 35.8597 16.2933 35.8864C16.3305 35.9115 16.3709 35.9317 16.4133 35.9464C16.4512 35.9655 16.4916 35.9789 16.5333 35.9864C16.6213 36.0042 16.712 36.0042 16.8 35.9864C16.8417 35.9789 16.8822 35.9655 16.92 35.9464C16.9625 35.9318 17.0028 35.9116 17.04 35.8864C17.0733 35.8597 17.1067 35.833 17.14 35.8064C17.2001 35.7425 17.2476 35.6679 17.28 35.5864C17.3511 35.425 17.3511 35.2411 17.28 35.0797C17.2477 34.9981 17.2002 34.9235 17.14 34.8597Z" fill="#363636"/>
<path d="M20.473 32.8597C20.281 32.6711 19.9947 32.6159 19.7463 32.7197C19.6656 32.7535 19.5912 32.8009 19.5263 32.8597C19.4045 32.9875 19.3355 33.1565 19.333 33.3331C19.334 33.4202 19.3522 33.5062 19.3863 33.5864C19.4186 33.6679 19.4661 33.7426 19.5263 33.8064C19.5912 33.8651 19.6656 33.9125 19.7463 33.9464C19.8265 33.9805 19.9126 33.9987 19.9997 33.9997C20.2711 34.0061 20.5171 33.8404 20.613 33.5864C20.6842 33.425 20.6842 33.2411 20.613 33.0797C20.5823 32.9974 20.5346 32.9224 20.473 32.8597Z" fill="#363636"/>
<path d="M20.4732 34.8602C20.2812 34.6716 19.9948 34.6164 19.7465 34.7202C19.5794 34.7814 19.4477 34.9131 19.3865 35.0802C19.3524 35.1604 19.3342 35.2464 19.3332 35.3336C19.3269 35.605 19.4926 35.8508 19.7465 35.9469C19.8267 35.981 19.9127 35.9992 19.9998 36.0002C20.1772 36.002 20.3478 35.9324 20.4732 35.8069C20.5987 35.6815 20.6683 35.5109 20.6665 35.3336C20.6655 35.2464 20.6473 35.1604 20.6132 35.0802C20.5809 34.9987 20.5334 34.924 20.4732 34.8602Z" fill="#363636"/>
<path d="M23.0799 32.7196C22.9992 32.7534 22.9248 32.8008 22.8599 32.8596C22.6439 33.0732 22.5988 33.4055 22.75 33.6689C22.9012 33.9324 23.2109 34.061 23.5043 33.9821C23.7977 33.9033 24.0012 33.6367 23.9999 33.333C23.9989 33.2458 23.9808 33.1598 23.9466 33.0796C23.9143 32.9981 23.8668 32.9234 23.8066 32.8596C23.6149 32.6705 23.3282 32.6152 23.0799 32.7196Z" fill="#363636"/>
<path d="M23.8058 34.8601C23.5441 34.6006 23.1218 34.6014 22.8611 34.8621C22.6004 35.1227 22.5996 35.5451 22.8592 35.8068C22.9241 35.8656 22.9985 35.9129 23.0792 35.9468C23.1593 35.981 23.2454 35.9991 23.3325 36.0001C23.5099 36.0019 23.6805 35.9323 23.8059 35.8069C23.9313 35.6815 24.001 35.5108 23.9992 35.3335C23.9981 35.2464 23.98 35.1603 23.9458 35.0801C23.9119 34.9994 23.8646 34.9251 23.8058 34.8601Z" fill="#363636"/>
</svg>