<svg width="20" height="20" viewBox="0 0 20 20" fill="none" xmlns="http://www.w3.org/2000/svg">
<path fill-rule="evenodd" clip-rule="evenodd" d="M10 2C5.58172 2 2 5.58172 2 10C2 10.5523 1.55228 11 1 11C0.447715 11 0 10.5523 0 10C2.38419e-07 4.47715 4.47715 -2.38419e-07 10 0C12.4817 1.19209e-07 14.7526 0.904759 16.5 2.40053V1C16.5 0.447716 16.9477 2.98023e-07 17.5 2.98023e-07C18.0523 2.98023e-07 18.5 0.447716 18.5 1V5C18.5 5.26522 18.3946 5.51957 18.2071 5.70711C18.0196 5.89464 17.7652 6 17.5 6L13.5 6C12.9477 6 12.5 5.55228 12.5 5C12.5 4.44771 12.9477 4 13.5 4L15.2918 4C13.8808 2.7544 12.0287 2 10 2ZM19 9C19.5523 9 20 9.44772 20 10C20 15.5229 15.5228 20 10 20C7.51827 20 5.24741 19.0952 3.5 17.5995L3.5 19C3.5 19.5523 3.05228 20 2.5 20C1.94772 20 1.5 19.5523 1.5 19L1.5 15C1.5 14.7348 1.60536 14.4804 1.79289 14.2929C1.98043 14.1054 2.23478 14 2.5 14L6.5 14C7.05229 14 7.5 14.4477 7.5 15C7.5 15.5523 7.05229 16 6.5 16H4.70824C6.1192 17.2456 7.97126 18 10 18C14.4183 18 18 14.4183 18 10C18 9.44772 18.4477 9 19 9Z" fill="#B7BDCE"/>
</svg>
