<svg width="40" height="40" viewBox="0 0 40 40" fill="none" xmlns="http://www.w3.org/2000/svg">
<path d="M38.125 10C37.9592 10 37.8003 10.0658 37.6831 10.1831C37.5658 10.3003 37.5 10.4592 37.5 10.625V33.125H34.1063C30.0843 33.1254 26.0753 33.582 22.1562 34.4863C21.9104 34.5425 21.6533 34.5228 21.4189 34.4297C21.1846 34.3366 20.984 34.1746 20.8438 33.965C23.0752 32.5991 25.6405 31.8758 28.2569 31.875H35.625C35.7908 31.875 35.9497 31.8092 36.0669 31.6919C36.1842 31.5747 36.25 31.4158 36.25 31.25V26.875C36.25 26.7092 36.1842 26.5503 36.0669 26.4331C35.9497 26.3158 35.7908 26.25 35.625 26.25C35.4592 26.25 35.3003 26.3158 35.1831 26.4331C35.0658 26.5503 35 26.7092 35 26.875V30.625H28.2569C25.5821 30.6225 22.9524 31.3142 20.625 32.6325V15.625C20.625 15.4592 20.5592 15.3003 20.4419 15.1831C20.3247 15.0658 20.1658 15 20 15C19.8342 15 19.6753 15.0658 19.5581 15.1831C19.4408 15.3003 19.375 15.4592 19.375 15.625V32.6319C17.0476 31.3137 14.4179 30.6222 11.7431 30.625H5V8.125H14.625C15.8851 8.12583 17.0932 8.62697 17.9839 9.51826C18.8747 10.4096 19.375 11.6181 19.375 12.8781C19.375 13.0439 19.4408 13.2029 19.5581 13.3201C19.6753 13.4373 19.8342 13.5031 20 13.5031C20.1658 13.5031 20.3247 13.4373 20.4419 13.3201C20.5592 13.2029 20.625 13.0439 20.625 12.8781C20.625 11.6181 21.1253 10.4096 22.0161 9.51826C22.9068 8.62697 24.1149 8.12583 25.375 8.125H35V24.375C35 24.5408 35.0658 24.6997 35.1831 24.8169C35.3003 24.9342 35.4592 25 35.625 25C35.7908 25 35.9497 24.9342 36.0669 24.8169C36.1842 24.6997 36.25 24.5408 36.25 24.375V7.5C36.25 7.33424 36.1842 7.17527 36.0669 7.05806C35.9497 6.94085 35.7908 6.875 35.625 6.875H25.375C24.2578 6.87583 23.163 7.18812 22.2135 7.7768C21.2641 8.36548 20.4975 9.20723 20 10.2075C19.5025 9.20723 18.7359 8.36548 17.7865 7.7768C16.837 7.18812 15.7422 6.87583 14.625 6.875H4.375C4.20924 6.875 4.05027 6.94085 3.93306 7.05806C3.81585 7.17527 3.75 7.33424 3.75 7.5V31.25C3.75 31.4158 3.81585 31.5747 3.93306 31.6919C4.05027 31.8092 4.20924 31.875 4.375 31.875H11.7431C14.3599 31.8756 16.9257 32.5988 19.1575 33.965C19.0168 34.1741 18.8161 34.3357 18.5819 34.4287C18.3477 34.5218 18.0908 34.5418 17.845 34.4863C13.9256 33.5819 9.91617 33.1252 5.89375 33.125H2.5V10.625C2.5 10.4592 2.43415 10.3003 2.31694 10.1831C2.19973 10.0658 2.04076 10 1.875 10C1.70924 10 1.55027 10.0658 1.43306 10.1831C1.31585 10.3003 1.25 10.4592 1.25 10.625V33.75C1.25 33.9158 1.31585 34.0747 1.43306 34.1919C1.55027 34.3092 1.70924 34.375 1.875 34.375H5.89375C9.82108 34.3756 13.7357 34.8216 17.5625 35.7044C18.0025 35.8059 18.4618 35.7858 18.8912 35.6462C19.3206 35.5066 19.7039 35.2528 20 34.9119C20.296 35.2529 20.6793 35.5068 21.1088 35.6464C21.5382 35.7861 21.9975 35.8061 22.4375 35.7044C26.2644 34.8217 30.1789 34.3758 34.1063 34.375H38.125C38.2908 34.375 38.4497 34.3092 38.5669 34.1919C38.6842 34.0747 38.75 33.9158 38.75 33.75V10.625C38.75 10.4592 38.6842 10.3003 38.5669 10.1831C38.4497 10.0658 38.2908 10 38.125 10Z" fill="#363636"/>
<path d="M17.9519 12.2581C16.967 11.6004 15.8093 11.2496 14.625 11.25H7.5C7.33424 11.25 7.17527 11.3158 7.05806 11.4331C6.94085 11.5503 6.875 11.7092 6.875 11.875C6.875 12.0408 6.94085 12.1997 7.05806 12.3169C7.17527 12.4342 7.33424 12.5 7.5 12.5H14.625C15.5634 12.4989 16.481 12.7767 17.2613 13.2981C17.3992 13.3901 17.568 13.4236 17.7305 13.3911C17.8931 13.3586 18.0361 13.2629 18.1281 13.125C18.2201 12.9871 18.2536 12.8183 18.2211 12.6557C18.1886 12.4931 18.0929 12.3501 17.955 12.2581H17.9519Z" fill="#363636"/>
<path d="M32.4998 11.25H25.3748C24.1895 11.2491 23.0306 11.5999 22.0448 12.2581C21.9765 12.3037 21.9179 12.3622 21.8722 12.4305C21.8266 12.4987 21.7948 12.5752 21.7787 12.6557C21.7626 12.7362 21.7626 12.8191 21.7785 12.8996C21.7945 12.9801 21.8261 13.0567 21.8717 13.125C21.9172 13.1933 21.9758 13.2519 22.044 13.2976C22.1122 13.3432 22.1888 13.375 22.2693 13.3911C22.3498 13.4072 22.4326 13.4072 22.5132 13.3913C22.5937 13.3753 22.6703 13.3437 22.7386 13.2981C23.5189 12.7769 24.4364 12.4991 25.3748 12.5H32.4998C32.6656 12.5 32.8245 12.4342 32.9417 12.3169C33.059 12.1997 33.1248 12.0408 33.1248 11.875C33.1248 11.7092 33.059 11.5503 32.9417 11.4331C32.8245 11.3158 32.6656 11.25 32.4998 11.25Z" fill="#363636"/>
<path d="M17.9519 15.3831C16.967 14.7254 15.8093 14.3746 14.625 14.375H7.5C7.33424 14.375 7.17527 14.4408 7.05806 14.5581C6.94085 14.6753 6.875 14.8342 6.875 15C6.875 15.1658 6.94085 15.3247 7.05806 15.4419C7.17527 15.5592 7.33424 15.625 7.5 15.625H14.625C15.5634 15.6239 16.481 15.9017 17.2613 16.4231C17.3992 16.5151 17.568 16.5486 17.7305 16.5161C17.8931 16.4836 18.0361 16.3879 18.1281 16.25C18.2201 16.1121 18.2536 15.9433 18.2211 15.7807C18.1886 15.6181 18.0929 15.4751 17.955 15.3831H17.9519Z" fill="#363636"/>
<path d="M32.4998 14.375H25.3748C24.1895 14.3741 23.0306 14.7249 22.0448 15.3831C21.9765 15.4287 21.9179 15.4872 21.8722 15.5555C21.8266 15.6237 21.7948 15.7002 21.7787 15.7807C21.7626 15.8612 21.7626 15.9441 21.7785 16.0246C21.7945 16.1051 21.8261 16.1817 21.8717 16.25C21.9172 16.3183 21.9758 16.3769 22.044 16.4226C22.1122 16.4682 22.1888 16.5 22.2693 16.5161C22.3498 16.5322 22.4326 16.5322 22.5132 16.5163C22.5937 16.5003 22.6703 16.4687 22.7386 16.4231C23.5189 15.9019 24.4364 15.6241 25.3748 15.625H32.4998C32.6656 15.625 32.8245 15.5592 32.9417 15.4419C33.059 15.3247 33.1248 15.1658 33.1248 15C33.1248 14.8342 33.059 14.6753 32.9417 14.5581C32.8245 14.4408 32.6656 14.375 32.4998 14.375Z" fill="#363636"/>
<path d="M17.9519 18.5081C16.967 17.8504 15.8093 17.4996 14.625 17.5H7.5C7.33424 17.5 7.17527 17.5658 7.05806 17.6831C6.94085 17.8003 6.875 17.9592 6.875 18.125C6.875 18.2908 6.94085 18.4497 7.05806 18.5669C7.17527 18.6842 7.33424 18.75 7.5 18.75H14.625C15.5634 18.7489 16.481 19.0267 17.2613 19.5481C17.3992 19.6401 17.568 19.6736 17.7305 19.6411C17.8931 19.6086 18.0361 19.5129 18.1281 19.375C18.2201 19.2371 18.2536 19.0683 18.2211 18.9057C18.1886 18.7431 18.0929 18.6001 17.955 18.5081H17.9519Z" fill="#363636"/>
<path d="M32.4998 17.5H25.3748C24.1895 17.4991 23.0306 17.8499 22.0448 18.5081C21.9765 18.5537 21.9179 18.6122 21.8722 18.6805C21.8266 18.7487 21.7948 18.8252 21.7787 18.9057C21.7626 18.9862 21.7626 19.0691 21.7785 19.1496C21.7945 19.2301 21.8261 19.3067 21.8717 19.375C21.9172 19.4433 21.9758 19.5019 22.044 19.5476C22.1122 19.5932 22.1888 19.625 22.2693 19.6411C22.3498 19.6572 22.4326 19.6572 22.5132 19.6413C22.5937 19.6253 22.6703 19.5937 22.7386 19.5481C23.5189 19.0269 24.4364 18.7491 25.3748 18.75H32.4998C32.6656 18.75 32.8245 18.6842 32.9417 18.5669C33.059 18.4497 33.1248 18.2908 33.1248 18.125C33.1248 17.9592 33.059 17.8003 32.9417 17.6831C32.8245 17.5658 32.6656 17.5 32.4998 17.5Z" fill="#363636"/>
<path d="M17.9519 21.6331C16.967 20.9754 15.8093 20.6246 14.625 20.625H7.5C7.33424 20.625 7.17527 20.6908 7.05806 20.8081C6.94085 20.9253 6.875 21.0842 6.875 21.25C6.875 21.4158 6.94085 21.5747 7.05806 21.6919C7.17527 21.8092 7.33424 21.875 7.5 21.875H14.625C15.5634 21.8739 16.481 22.1517 17.2612 22.6731C17.3295 22.7187 17.4061 22.7503 17.4866 22.7663C17.5672 22.7822 17.65 22.7822 17.7305 22.7661C17.811 22.75 17.8876 22.7182 17.9558 22.6726C18.024 22.6269 18.0826 22.5683 18.1281 22.5C18.1737 22.4317 18.2053 22.3551 18.2213 22.2746C18.2372 22.1941 18.2372 22.1112 18.2211 22.0307C18.205 21.9502 18.1732 21.8737 18.1276 21.8055C18.0819 21.7372 18.0233 21.6787 17.955 21.6331H17.9519Z" fill="#363636"/>
<path d="M32.4998 20.625H25.3748C24.1895 20.6241 23.0306 20.9749 22.0448 21.6331C21.9069 21.7251 21.8112 21.8681 21.7787 22.0307C21.7462 22.1933 21.7797 22.3621 21.8717 22.5C21.9637 22.6379 22.1067 22.7336 22.2693 22.7661C22.4318 22.7986 22.6006 22.7651 22.7386 22.6731C23.5189 22.1519 24.4364 21.8741 25.3748 21.875H32.4998C32.6656 21.875 32.8245 21.8092 32.9417 21.6919C33.059 21.5747 33.1248 21.4158 33.1248 21.25C33.1248 21.0842 33.059 20.9253 32.9417 20.8081C32.8245 20.6908 32.6656 20.625 32.4998 20.625Z" fill="#363636"/>
<path d="M17.9519 24.7581C16.967 24.1004 15.8093 23.7496 14.625 23.75H7.5C7.33424 23.75 7.17527 23.8158 7.05806 23.9331C6.94085 24.0503 6.875 24.2092 6.875 24.375C6.875 24.5408 6.94085 24.6997 7.05806 24.8169C7.17527 24.9342 7.33424 25 7.5 25H14.625C15.5634 24.9989 16.481 25.2767 17.2613 25.7981C17.3992 25.8901 17.568 25.9236 17.7305 25.8911C17.8931 25.8586 18.0361 25.7629 18.1281 25.625C18.2201 25.4871 18.2536 25.3183 18.2211 25.1557C18.1886 24.9931 18.0929 24.8501 17.955 24.7581H17.9519Z" fill="#363636"/>
<path d="M32.4998 23.75H25.3748C24.1895 23.7491 23.0306 24.0999 22.0448 24.7581C21.9765 24.8037 21.9179 24.8622 21.8722 24.9305C21.8266 24.9987 21.7948 25.0752 21.7787 25.1557C21.7626 25.2362 21.7626 25.3191 21.7785 25.3996C21.7945 25.4801 21.8261 25.5567 21.8717 25.625C21.9637 25.7629 22.1067 25.8586 22.2693 25.8911C22.3498 25.9072 22.4326 25.9072 22.5132 25.8913C22.5937 25.8753 22.6703 25.8437 22.7386 25.7981C23.5189 25.2769 24.4364 24.9991 25.3748 25H32.4998C32.6656 25 32.8245 24.9342 32.9417 24.8169C33.059 24.6997 33.1248 24.5408 33.1248 24.375C33.1248 24.2092 33.059 24.0503 32.9417 23.9331C32.8245 23.8158 32.6656 23.75 32.4998 23.75Z" fill="#363636"/>
<path d="M14.625 26.875H7.5C7.33424 26.875 7.17527 26.9408 7.05806 27.0581C6.94085 27.1753 6.875 27.3342 6.875 27.5C6.875 27.6658 6.94085 27.8247 7.05806 27.9419C7.17527 28.0592 7.33424 28.125 7.5 28.125H14.625C15.5634 28.1239 16.481 28.4017 17.2612 28.9231C17.3295 28.9687 17.4061 29.0003 17.4866 29.0163C17.5672 29.0322 17.65 29.0322 17.7305 29.0161C17.811 29 17.8876 28.9682 17.9558 28.9226C18.024 28.8769 18.0826 28.8183 18.1281 28.75C18.1737 28.6817 18.2053 28.6051 18.2213 28.5246C18.2372 28.4441 18.2372 28.3612 18.2211 28.2807C18.205 28.2002 18.1732 28.1237 18.1276 28.0555C18.0819 27.9872 18.0233 27.9287 17.955 27.8831C16.9693 27.2248 15.8103 26.874 14.625 26.875Z" fill="#363636"/>
<path d="M32.4998 26.875H25.3748C24.1895 26.8741 23.0306 27.2249 22.0448 27.8831C21.9765 27.9287 21.9179 27.9872 21.8722 28.0555C21.8266 28.1237 21.7948 28.2002 21.7787 28.2807C21.7626 28.3612 21.7626 28.4441 21.7785 28.5246C21.7945 28.6051 21.8261 28.6817 21.8717 28.75C21.9172 28.8183 21.9758 28.8769 22.044 28.9226C22.1122 28.9683 22.1888 29 22.2693 29.0161C22.3498 29.0322 22.4326 29.0322 22.5132 29.0163C22.5937 29.0003 22.6703 28.9687 22.7386 28.9231C23.5189 28.4019 24.4364 28.1241 25.3748 28.125H32.4998C32.6656 28.125 32.8245 28.0592 32.9417 27.9419C33.059 27.8247 33.1248 27.6658 33.1248 27.5C33.1248 27.3342 33.059 27.1753 32.9417 27.0581C32.8245 26.9408 32.6656 26.875 32.4998 26.875Z" fill="#363636"/>
</svg>
