<svg width="15" height="15" viewBox="0 0 15 15" fill="none" xmlns="http://www.w3.org/2000/svg">
<path d="M8.29979 3C8.11408 3 7.93598 3.079 7.80467 3.21961C7.67335 3.36022 7.59958 3.55094 7.59958 3.7498C7.59958 3.94865 7.67335 4.13937 7.80467 4.27998C7.93598 4.42059 8.11408 4.49959 8.29979 4.49959C8.4855 4.49959 8.6636 4.42059 8.79491 4.27998C8.92623 4.13937 9 3.94865 9 3.7498C9 3.55094 8.92623 3.36022 8.79491 3.21961C8.6636 3.079 8.4855 3 8.29979 3ZM8.13174 5.38435C7.57624 5.43434 6.05912 6.72898 6.05912 6.72898C5.96576 6.80396 5.99376 6.79896 6.06845 6.93892C6.14314 7.07389 6.13381 7.08388 6.2225 7.0189C6.31586 6.95392 6.46991 6.84895 6.72665 6.67899C7.71628 5.99918 6.88537 7.56875 6.46057 10.213C6.29252 11.5227 7.39418 10.8479 7.67894 10.6479C7.95902 10.453 8.71058 9.89812 8.78527 9.84313C8.88797 9.76815 8.81328 9.70817 8.73392 9.5832C8.6779 9.49823 8.62189 9.55821 8.62189 9.55821C8.31846 9.77315 7.76296 10.223 7.68827 9.9381C7.59958 9.65318 8.16908 7.69872 8.48184 6.35408C8.53319 6.03417 8.67324 5.33436 8.13174 5.38435Z" fill="#B7BDCE"/>
<circle cx="7.5" cy="7.5" r="7" stroke="#B7BDCE"/>
</svg>
