<svg width="40" height="40" viewBox="0 0 40 40" fill="none" xmlns="http://www.w3.org/2000/svg">
<path d="M20.0004 6.52157C20.4787 6.52157 20.87 6.13026 20.87 5.652V5.21722C20.87 4.73896 20.4787 4.34766 20.0004 4.34766C19.5222 4.34766 19.1309 4.73896 19.1309 5.21722V5.652C19.1309 6.13026 19.5222 6.52157 20.0004 6.52157Z" fill="#363636"/>
<path d="M20.0004 33.478C19.5222 33.478 19.1309 33.8693 19.1309 34.3476V34.7824C19.1309 35.2606 19.5222 35.6519 20.0004 35.6519C20.4787 35.6519 20.87 35.2606 20.87 34.7824V34.3476C20.87 33.8693 20.4787 33.478 20.0004 33.478Z" fill="#363636"/>
<path d="M5.652 19.1304H5.21722C4.73896 19.1304 4.34766 19.5217 4.34766 19.9999C4.34766 20.4782 4.73896 20.8695 5.21722 20.8695H5.652C6.13026 20.8695 6.52157 20.4782 6.52157 19.9999C6.52157 19.5217 6.13026 19.1304 5.652 19.1304Z" fill="#363636"/>
<path d="M34.7829 19.1304H34.3481C33.8698 19.1304 33.4785 19.5217 33.4785 19.9999C33.4785 20.4782 33.8698 20.8695 34.3481 20.8695H34.7829C35.2611 20.8695 35.6524 20.4782 35.6524 19.9999C35.6524 19.5217 35.2611 19.1304 34.7829 19.1304Z" fill="#363636"/>
<path d="M10.1736 8.95667C9.82575 8.60884 9.30401 8.60884 8.95618 8.95667C8.60836 9.3045 8.60836 9.82624 8.95618 10.1741L9.26053 10.4784C9.43444 10.6523 9.65184 10.7393 9.86923 10.7393C10.0866 10.7393 10.304 10.6523 10.4779 10.4784C10.8257 10.1306 10.8257 9.60884 10.4779 9.26102L10.1736 8.95667Z" fill="#363636"/>
<path d="M9.26053 29.5216L8.95618 29.826C8.60836 30.1738 8.60836 30.6955 8.95618 31.0434C9.1301 31.2173 9.34749 31.3042 9.56488 31.3042C9.78227 31.3042 9.99966 31.2173 10.1736 31.0434L10.4779 30.739C10.8257 30.3912 10.8257 29.8694 10.4779 29.5216C10.1301 29.1738 9.60836 29.1738 9.26053 29.5216Z" fill="#363636"/>
<path d="M29.826 8.95667L29.5216 9.26102C29.1738 9.60884 29.1738 10.1306 29.5216 10.4784C29.6955 10.6523 29.9129 10.7393 30.1303 10.7393C30.3477 10.7393 30.5651 10.6523 30.739 10.4784L31.0434 10.1741C31.3912 9.82624 31.3912 9.3045 31.0434 8.95667C30.6955 8.60884 30.1738 8.60884 29.826 8.95667Z" fill="#363636"/>
<path d="M20.87 19.6522V11.7392C20.87 11.2609 20.4787 10.8696 20.0004 10.8696C19.5222 10.8696 19.1309 11.2609 19.1309 11.7392V20.0001C19.1309 20.2175 19.2178 20.4348 19.3917 20.6088L28.9135 30.1305C29.0874 30.3044 29.3048 30.3914 29.5222 30.3914C29.7395 30.3914 29.9569 30.3044 30.1309 30.1305C30.4787 29.7827 30.4787 29.2609 30.1309 28.9131L20.87 19.6522Z" fill="#363636"/>
<path d="M20 0C8.95652 0 0 8.95652 0 20C0 31.0435 8.95652 40 20 40C31.0435 40 40 31.0435 40 20C40 8.95652 31.0435 0 20 0ZM20 38.2609C9.91304 38.2609 1.73913 30.087 1.73913 20C1.73913 9.91304 9.91304 1.73913 20 1.73913C30.087 1.73913 38.2609 9.91304 38.2609 20C38.2609 30.087 30.087 38.2609 20 38.2609Z" fill="#363636"/>
</svg>
