<svg width="40" height="40" viewBox="0 0 40 40" fill="none" xmlns="http://www.w3.org/2000/svg">
<g clip-path="url(#clip0_179_8037)">
<path d="M20.256 14.8447C18.0026 14.8447 16.1758 16.6715 16.1758 18.925C16.1758 21.1784 18.0025 23.0052 20.256 23.0052C22.5094 23.0052 24.3363 21.1785 24.3363 18.925C24.3363 16.6715 22.5095 14.8447 20.256 14.8447ZM20.256 21.0621C19.0756 21.0621 18.1187 20.1053 18.1187 18.9249C18.1187 17.7445 19.0756 16.7876 20.256 16.7876C21.4364 16.7876 22.3933 17.7445 22.3933 18.9249C22.3933 20.1053 21.4364 21.0621 20.256 21.0621Z" fill="#363636"/>
<path d="M36.5289 5.51849L10.0076 2.50699C8.97828 2.36065 7.9354 2.66114 7.14177 3.33278C6.34824 3.94808 5.83959 4.86015 5.73313 5.85859L5.24744 9.84167H3.74154C1.60427 9.84167 0.00131269 11.736 0.00131269 13.8733V33.74C-0.052519 35.778 1.55602 37.474 3.59418 37.5278C3.64327 37.5291 3.69245 37.5294 3.74154 37.5287H30.4086C32.5459 37.5287 34.4888 35.8772 34.4888 33.74V32.9628C35.1514 32.8348 35.78 32.5701 36.3346 32.1856C37.1216 31.523 37.6256 30.5846 37.7433 29.5627L39.9777 9.84167C40.2055 7.69947 38.6682 5.7724 36.5289 5.51849ZM32.5459 33.74C32.5459 34.8086 31.4772 35.5858 30.4086 35.5858H3.74154C2.7762 35.6141 1.97068 34.8545 1.94232 33.8892C1.94083 33.8394 1.94148 33.7897 1.94427 33.74V30.1455L9.47327 24.6081C10.3777 23.9137 11.6516 23.9754 12.4849 24.7538L17.7794 29.4169C18.5835 30.092 19.5956 30.4693 20.6453 30.4855C21.4661 30.4956 22.2734 30.277 22.9769 29.854L32.546 24.3166V33.74H32.5459ZM32.5459 22.0337L21.9567 28.2025C21.0475 28.7412 19.8965 28.6437 19.0908 27.9597L13.7477 23.248C12.2164 21.9321 9.97812 21.8514 8.35601 23.0537L1.94427 27.7168V13.8733C1.94427 12.8046 2.67291 11.7846 3.74154 11.7846H30.4086C31.5503 11.832 32.4723 12.7331 32.5459 13.8733V22.0337ZM38.0366 9.57939C38.0359 9.58581 38.0354 9.59231 38.0346 9.59873L35.7517 29.3197C35.7556 29.8311 35.5224 30.3154 35.1202 30.6312C34.9259 30.8255 34.4887 30.9227 34.4887 31.0198V13.8733C34.412 11.6604 32.6221 9.89178 30.4085 9.84167H7.19031L7.62747 6.05291C7.7223 5.56228 7.97881 5.11768 8.3561 4.78995C8.78211 4.49541 9.29718 4.35809 9.81337 4.40132L36.2862 7.46145C37.3543 7.56289 38.138 8.51113 38.0366 9.57939Z" fill="#363636"/>
</g>
<defs>
<clipPath id="clip0_179_8037">
<rect width="40" height="40" fill="white"/>
</clipPath>
</defs>
</svg>