<svg xmlns="http://www.w3.org/2000/svg" viewBox="0 0 34.84 40"><path d="M37.16,11.61a.63.63,0,0,0-.56-.11l-8.47,2.42a9.28,9.28,0,0,0-.07-9.27A9.31,9.31,0,0,0,12,4.64a9.36,9.36,0,0,0-1.28,4.92L3.07,11.5a.64.64,0,0,0-.49.62V36.81a.65.65,0,0,0,.26.52.63.63,0,0,0,.56.1L13.82,34.5l13,5.45a.7.7,0,0,0,.25,0h0l.16,0,9.7-2.54a.65.65,0,0,0,.48-.63V12.12A.64.64,0,0,0,37.16,11.61ZM13.07,5.29a7.94,7.94,0,0,1,6.93-4h0a7.94,7.94,0,0,1,6.94,4,8,8,0,0,1,0,8.06l-.74,1.28,0,0L20,25.45,13,13.39a8.14,8.14,0,0,1-1-3.34s0-.06,0-.1A8,8,0,0,1,13.07,5.29Zm23.06,31-9,2.36-13-5.46a.67.67,0,0,0-.42,0L3.87,36V12.62l6.92-1.76A9.63,9.63,0,0,0,11.91,14l7,12.06h-2a.65.65,0,0,0,0,1.29h6a.65.65,0,0,0,0-1.29H21.12l6.09-10.57L36.13,13ZM20,14.34a4.71,4.71,0,1,1,4.7-4.71A4.71,4.71,0,0,1,20,14.34Zm0-8.13a3.42,3.42,0,1,0,3.41,3.42A3.42,3.42,0,0,0,20,6.21Z" transform="translate(-2.58)"/></svg>