<svg width="30" height="30" viewBox="0 0 30 30" fill="none" xmlns="http://www.w3.org/2000/svg">
<path fill-rule="evenodd" clip-rule="evenodd" d="M15 5C9.47715 5 5 9.47715 5 15C5 20.5228 9.47715 25 15 25C20.5228 25 25 20.5228 25 15C25 9.47715 20.5228 5 15 5ZM2.5 15C2.5 8.09644 8.09644 2.5 15 2.5C21.9036 2.5 27.5 8.09644 27.5 15C27.5 21.9036 21.9036 27.5 15 27.5C8.09644 27.5 2.5 21.9036 2.5 15Z" fill="#B7BDCE"/>
<path fill-rule="evenodd" clip-rule="evenodd" d="M15 10.002C15.6904 10.002 16.25 10.5616 16.25 11.252V18.752C16.25 19.4423 15.6904 20.002 15 20.002C14.3096 20.002 13.75 19.4423 13.75 18.752V11.252C13.75 10.5616 14.3096 10.002 15 10.002Z" fill="#B7BDCE"/>
<path fill-rule="evenodd" clip-rule="evenodd" d="M10 15.002C10 14.3116 10.5596 13.752 11.25 13.752H18.75C19.4404 13.752 20 14.3116 20 15.002C20 15.6923 19.4404 16.252 18.75 16.252H11.25C10.5596 16.252 10 15.6923 10 15.002Z" fill="#B7BDCE"/>
</svg>
